<svg id="Capa_1" enable-background="new 0 0 512 512" height="512" viewBox="0 0 512 512" width="512" xmlns="http://www.w3.org/2000/svg" xmlns:xlink="http://www.w3.org/1999/xlink"><linearGradient id="SVGID_1_" gradientTransform="matrix(1 0 0 -1 -561.6 -4458.99)" gradientUnits="userSpaceOnUse" x1="958.425" x2="795.758" y1="-4488.887" y2="-4836.221"><stop offset="0" stop-color="#c7d0fb"/><stop offset=".593" stop-color="#e0d5f1"/><stop offset=".997" stop-color="#f3d7ea"/></linearGradient><linearGradient id="SVGID_2_" gradientUnits="userSpaceOnUse" x1="256" x2="256" y1="117.79" y2="394.21"><stop offset=".0028" stop-color="#e17db3" stop-opacity="0"/><stop offset="1" stop-color="#e17db3" stop-opacity=".6"/></linearGradient><g><path d="m310.203.425c-95.818 8.652-105.09 192.428-146.416 286.587-20.478 46.658-68.772 94.794-60.258 149.782 9.605 62.035 72.897 80.075 121.683 74.14 120.723-14.685 172.899-141.053 180.797-260.801 4.869-73.829 20.301-260.192-95.806-249.708z" fill="url(#SVGID_1_)"/><path d="m469.82 138.79v234.42c0 11.6-9.4 21-21 21h-385.64c-11.6 0-21-9.4-21-21v-234.42c0-11.6 9.4-21 21-21h385.64c11.6 0 21 9.4 21 21z" fill="#a1adf9"/><path d="m394.488 297.032h75.333v-37.381h-75.333c-2.761 0-5 2.239-5 5v27.381c0 2.762 2.238 5 5 5z" fill="#d2dbfc"/><path d="m42.18 170h427.64v67.55h-427.64z" fill="#5169f7"/><path d="m187.36 170v18.31c0 5.52-4.47 10-10 10h-77.94c-5.52 0-10-4.48-10-10v-18.31z" fill="#4059d9"/><path d="m91.831 324.698h-16.52c-2.762 0-5-2.239-5-5s2.238-5 5-5h16.52c2.762 0 5 2.239 5 5s-2.239 5-5 5z" fill="#eec1db"/><path d="m212.595 350.698h-137.284c-2.762 0-5-2.239-5-5s2.238-5 5-5h137.284c2.762 0 5 2.239 5 5s-2.238 5-5 5z" fill="#8efcb4"/><path d="m212.595 369.778h-137.284c-2.762 0-5-2.239-5-5s2.238-5 5-5h137.284c2.762 0 5 2.239 5 5s-2.238 5-5 5z" fill="#8efcb4"/><g fill="#b8c1fb"><circle cx="324.902" cy="203.777" r="5.59"/><circle cx="341.812" cy="203.777" r="5.59"/><circle cx="358.722" cy="203.777" r="5.59"/></g><g fill="#d2dbfc"><path d="m87.743 298.681h-5.332c-6.508 0-11.803-5.295-11.803-11.803v-16.457c0-6.508 5.295-11.803 11.803-11.803h5.332c6.508 0 11.803 5.295 11.803 11.803v16.457c0 6.508-5.295 11.803-11.803 11.803zm-5.331-30.062c-.994 0-1.803.809-1.803 1.803v16.457c0 .994.809 1.803 1.803 1.803h5.332c.994 0 1.803-.809 1.803-1.803v-16.457c0-.994-.809-1.803-1.803-1.803z"/><path d="m124.845 281.555h-14.025c-2.761 0-5-2.239-5-5v-12.936c0-2.761 2.239-5 5-5s5 2.239 5 5v7.936h9.025c2.761 0 5 2.239 5 5s-2.239 5-5 5z"/><path d="m126.442 298.065c-2.761 0-5-2.239-5-5v-29.446c0-2.761 2.239-5 5-5s5 2.239 5 5v29.446c0 2.761-2.238 5-5 5z"/><path d="m156.087 298.681h-5.332c-6.508 0-11.803-5.295-11.803-11.803v-16.457c0-6.508 5.295-11.803 11.803-11.803h5.332c6.508 0 11.802 5.295 11.802 11.803v16.457c.001 6.508-5.294 11.803-11.802 11.803zm-5.331-30.062c-.994 0-1.803.809-1.803 1.803v16.457c0 .994.809 1.803 1.803 1.803h5.332c.994 0 1.802-.809 1.802-1.803v-16.457c0-.994-.809-1.803-1.802-1.803z"/><path d="m193.188 281.555h-14.025c-2.761 0-5-2.239-5-5v-12.936c0-2.761 2.239-5 5-5s5 2.239 5 5v7.936h9.025c2.761 0 5 2.239 5 5s-2.238 5-5 5z"/><path d="m194.786 298.065c-2.761 0-5-2.239-5-5v-29.446c0-2.761 2.239-5 5-5s5 2.239 5 5v29.446c0 2.761-2.239 5-5 5z"/><path d="m252.532 281.555h-14.024c-2.761 0-5-2.239-5-5v-12.936c0-2.761 2.239-5 5-5s5 2.239 5 5v7.936h9.024c2.762 0 5 2.239 5 5s-2.238 5-5 5z"/><path d="m254.131 298.065c-2.762 0-5-2.239-5-5v-29.446c0-2.761 2.238-5 5-5s5 2.239 5 5v29.446c0 2.761-2.238 5-5 5z"/><path d="m285.64 281.555h-14.024c-2.762 0-5-2.239-5-5v-12.936c0-2.761 2.238-5 5-5s5 2.239 5 5v7.936h9.024c2.762 0 5 2.239 5 5s-2.239 5-5 5z"/><path d="m287.237 298.065c-2.762 0-5-2.239-5-5v-29.446c0-2.761 2.238-5 5-5s5 2.239 5 5v29.446c0 2.761-2.238 5-5 5z"/><path d="m318.747 281.555h-14.025c-2.762 0-5-2.239-5-5v-12.936c0-2.761 2.238-5 5-5s5 2.239 5 5v7.936h9.025c2.762 0 5 2.239 5 5s-2.238 5-5 5z"/><path d="m320.345 298.065c-2.762 0-5-2.239-5-5v-29.446c0-2.761 2.238-5 5-5s5 2.239 5 5v29.446c0 2.761-2.239 5-5 5z"/><path d="m351.855 281.555h-14.025c-2.762 0-5-2.239-5-5v-12.936c0-2.761 2.238-5 5-5s5 2.239 5 5v7.936h9.025c2.762 0 5 2.239 5 5s-2.239 5-5 5z"/><path d="m353.452 298.065c-2.762 0-5-2.239-5-5v-29.446c0-2.761 2.238-5 5-5s5 2.239 5 5v29.446c0 2.761-2.238 5-5 5z"/></g><path d="m469.82 138.79v234.42c0 11.6-9.4 21-21 21h-385.64c-11.6 0-21-9.4-21-21v-234.42c0-11.6 9.4-21 21-21h385.64c11.6 0 21 9.4 21 21z" fill="url(#SVGID_2_)"/><path d="m177.365 181.025h-77.944c-5.523 0-10-4.477-10-10v-77.944c0-5.523 4.477-10 10-10h77.944c5.523 0 10 4.477 10 10v77.944c0 5.523-4.478 10-10 10z" fill="#8efcb4"/><path d="m187.361 93.083v77.94c0 5.52-4.47 10-10 10h-16.69c5.53 0 10-4.48 10-10v-77.94c0-5.53-4.47-10-10-10h16.69c5.53 0 10 4.47 10 10z" fill="#b9fdd1"/><path d="m411.295 426.017h-77.944c-5.523 0-10-4.477-10-10v-77.944c0-5.523 4.477-10 10-10h77.944c5.523 0 10 4.477 10 10v77.944c0 5.523-4.477 10-10 10z" fill="#e17db3"/><path d="m421.291 338.076v77.94c0 5.52-4.47 10-10 10h-16.69c5.53 0 10-4.48 10-10v-77.94c0-5.53-4.47-10-10-10h16.69c5.53 0 10 4.47 10 10z" fill="#e8a4cb"/><path d="m144.941 127.053h-1.548v-10.281h6.511c2.761 0 5-2.239 5-5s-2.239-5-5-5h-6.511v-2.551c0-2.761-2.239-5-5-5s-5 2.239-5 5v2.551h-1.548c-8.348 0-15.14 6.792-15.14 15.141 0 8.348 6.792 15.14 15.14 15.14h1.548v10.281h-6.511c-2.761 0-5 2.239-5 5s2.239 5 5 5h6.511v2.551c0 2.761 2.239 5 5 5s5-2.239 5-5v-2.551h1.548c8.349 0 15.141-6.792 15.141-15.141 0-8.348-6.792-15.14-15.141-15.14zm-13.097 0c-2.834 0-5.14-2.306-5.14-5.14s2.306-5.141 5.14-5.141h1.548v10.281zm13.097 20.28h-1.548v-10.281h1.548c2.834 0 5.141 2.306 5.141 5.14s-2.307 5.141-5.141 5.141z" fill="#fff"/><path d="m355.158 372.891c-7.174 0-13.011-5.836-13.011-13.011s5.837-13.011 13.011-13.011 13.011 5.836 13.011 13.011-5.837 13.011-13.011 13.011zm0-16.021c-1.66 0-3.011 1.351-3.011 3.011s1.351 3.011 3.011 3.011 3.011-1.351 3.011-3.011-1.351-3.011-3.011-3.011z" fill="#f3d7ea"/><path d="m389.487 407.221c-7.174 0-13.011-5.836-13.011-13.011s5.837-13.011 13.011-13.011 13.011 5.836 13.011 13.011-5.837 13.011-13.011 13.011zm0-16.022c-1.66 0-3.011 1.351-3.011 3.011s1.351 3.011 3.011 3.011 3.011-1.351 3.011-3.011-1.351-3.011-3.011-3.011z" fill="#f3d7ea"/><path d="m358.13 396.238c-1.279 0-2.56-.488-3.535-1.464-1.953-1.953-1.953-5.119 0-7.071l28.386-28.386c1.951-1.952 5.119-1.952 7.07 0 1.953 1.953 1.953 5.119 0 7.071l-28.386 28.386c-.976.976-2.256 1.464-3.535 1.464z" fill="#f3d7ea"/><path d="m220.494 53h-3.25v-3.25c0-2.761-2.239-5-5-5s-5 2.239-5 5v3.25h-3.25c-2.761 0-5 2.239-5 5s2.239 5 5 5h3.25v3.25c0 2.761 2.239 5 5 5s5-2.239 5-5v-3.25h3.25c2.761 0 5-2.239 5-5s-2.239-5-5-5z" fill="#84eaa5"/><path d="m447.292 449h-3.25v-3.25c0-2.761-2.238-5-5-5s-5 2.239-5 5v3.25h-3.25c-2.762 0-5 2.239-5 5s2.238 5 5 5h3.25v3.25c0 2.761 2.238 5 5 5s5-2.239 5-5v-3.25h3.25c2.762 0 5-2.239 5-5s-2.238-5-5-5z" fill="#84eaa5"/><path d="m205.122 438.74h-3.25v-3.25c0-2.761-2.239-5-5-5s-5 2.239-5 5v3.25h-3.25c-2.761 0-5 2.239-5 5s2.239 5 5 5h3.25v3.25c0 2.761 2.239 5 5 5s5-2.239 5-5v-3.25h3.25c2.761 0 5-2.239 5-5s-2.239-5-5-5z" fill="#e17db3"/><path d="m240.213 477.825c-1.433 0-2.889-.213-4.327-.66-7.688-2.391-11.999-10.592-9.608-18.28 1.158-3.725 3.697-6.775 7.15-8.59 3.453-1.814 7.406-2.177 11.13-1.018 3.724 1.158 6.775 3.697 8.59 7.15 1.814 3.453 2.176 7.406 1.018 11.131-1.944 6.25-7.727 10.267-13.953 10.267zm.003-19.209c-.736 0-1.466.179-2.136.531-1.088.572-1.889 1.534-2.254 2.708-.753 2.423.605 5.008 3.029 5.762 2.422.753 5.007-.605 5.762-3.029.365-1.173.251-2.419-.321-3.507s-1.534-1.889-2.708-2.254c-.45-.141-.912-.211-1.372-.211z" fill="#e17db3"/><path d="m439.033 97.688c-1.433 0-2.889-.213-4.327-.66-7.688-2.391-11.998-10.591-9.608-18.28 2.393-7.689 10.588-11.999 18.281-9.608 7.688 2.391 11.998 10.591 9.607 18.28-1.944 6.25-7.727 10.268-13.953 10.268zm.012-19.208c-1.963 0-3.785 1.266-4.398 3.237-.753 2.423.605 5.008 3.029 5.762 2.426.755 5.008-.606 5.762-3.029.753-2.424-.605-5.008-3.028-5.762-.454-.141-.914-.208-1.365-.208zm9.167 7.455h.01z" fill="#8695f9"/></g></svg>