<svg id="Capa_1" enable-background="new 0 0 512 512" height="512" viewBox="0 0 512 512" width="512" xmlns="http://www.w3.org/2000/svg" xmlns:xlink="http://www.w3.org/1999/xlink"><linearGradient id="SVGID_1_" gradientTransform="matrix(.987 .163 .163 -.987 -590.927 -8135.845)" gradientUnits="userSpaceOnUse" x1="2386.864" x2="2061.893" y1="-8213.709" y2="-8082.075"><stop offset=".0112" stop-color="#e3fbec"/><stop offset=".7774" stop-color="#cedbf8"/><stop offset="1" stop-color="#c7d0fb"/></linearGradient><linearGradient id="SVGID_2_" gradientUnits="userSpaceOnUse" x1="256" x2="256" y1="63.458" y2="300.458"><stop offset=".0028" stop-color="#e17db3" stop-opacity="0"/><stop offset="1" stop-color="#e17db3" stop-opacity=".6"/></linearGradient><g><path d="m310.35.425c-95.818 8.652-105.091 192.429-146.416 286.587-20.478 46.658-68.772 94.794-60.258 149.782 9.605 62.035 72.897 80.075 121.683 74.14 120.723-14.685 172.899-141.053 180.797-260.801 4.869-73.829 20.3-260.192-95.806-249.708z" fill="url(#SVGID_1_)"/><path d="m287.5 291.458v177c0 5.523-4.477 10-10 10h-43c-5.523 0-10-4.477-10-10v-177z" fill="#a1adf9"/><path d="m224.5 363.458h63v14h-63z" fill="#8695f9"/><path d="m224.5 291.458h63v21h-63z" fill="#8695f9"/><path d="m438.5 83.458v197c0 11.046-8.954 20-20 20h-325c-11.046 0-20-8.954-20-20v-197c0-11.046 8.954-20 20-20h325c11.046 0 20 8.954 20 20z" fill="#f3d7ea"/><path d="m279.5 64.138v23.32c0 2.761-2.239 5-5 5h-36.992c-2.775 0-5.008-2.207-5.008-4.927v-23.393c0-.227.02-.463.06-.68h46.88c.04.217.06.453.06.68z" fill="#eec1db"/><path d="m174.5 64.138v23.32c0 2.761-2.239 5-5 5h-37c-2.761 0-5-2.239-5-5v-23.32c0-.227.02-.463.06-.68h46.88c.04.217.06.453.06.68z" fill="#eec1db"/><path d="m384.5 64.138v23.32c0 2.761-2.239 5-5 5h-37c-2.761 0-5-2.239-5-5v-23.32c0-.227.02-.463.06-.68h46.88c.04.217.06.453.06.68z" fill="#eec1db"/><path d="m192.5 145.458h246v80h-246z" fill="#e8a4cb"/><circle cx="161.303" cy="184.087" fill="#e17db3" r="64.368"/><path d="m428.496 365.458h-344.996c-5.523 0-10-4.477-10-10v-17c0-5.523 4.477-10 10-10h345c5.523 0 10 4.477 10 10v17.057c-.001 5.491-4.479 9.943-10.004 9.943z" fill="#b9fdd1"/><path d="m279.5 51.458v24c0 2.761-2.239 5-5 5h-37c-2.761 0-5-2.239-5-5v-24c0-2.761 2.239-5 5-5h37c2.762 0 5 2.239 5 5z" fill="#8efcb4"/><path d="m279.5 51.458v24c0 2.761-2.239 5-5 5h-13c2.76 0 5-2.247 5-5.039v-23.923c0-2.781-2.24-5.038-5-5.038h13c2.762 0 5 2.239 5 5z" fill="#b9fdd1"/><path d="m174.5 51.458v24c0 2.761-2.239 5-5 5h-37c-2.761 0-5-2.239-5-5v-24c0-2.761 2.239-5 5-5h37c2.762 0 5 2.239 5 5z" fill="#8efcb4"/><path d="m169.5 46.458c2.761 0 5 2.239 5 5v23.961c0 2.791-2.24 5.039-5 5.039h-13c2.76 0 5-2.247 5-5.039v-23.923c0-2.781-2.24-5.038-5-5.038z" fill="#b9fdd1"/><path d="m384.5 51.458v24c0 2.761-2.239 5-5 5h-37c-2.761 0-5-2.239-5-5v-24c0-2.761 2.239-5 5-5h37c2.762 0 5 2.239 5 5z" fill="#8efcb4"/><path d="m384.5 51.458v24c0 2.761-2.239 5-5 5h-13c2.76 0 5-2.247 5-5.039v-23.923c0-2.781-2.24-5.038-5-5.038h13c2.762 0 5 2.239 5 5z" fill="#b9fdd1"/><path d="m280.063 229.458h-32.031c-2.403 0-4.612-1.609-5.084-3.965-.644-3.214 1.796-6.035 4.896-6.035h32.03c2.403 0 4.612 1.609 5.085 3.965.645 3.214-1.797 6.035-4.896 6.035z" fill="#fff"/><path d="m370.063 250.458h-122.031c-2.403 0-4.612-1.609-5.084-3.965-.644-3.214 1.796-6.035 4.896-6.035h122.03c2.403 0 4.612 1.609 5.085 3.965.645 3.214-1.797 6.035-4.896 6.035z" fill="#b9fdd1"/><path d="m370.063 267.458h-122.031c-2.403 0-4.612-1.609-5.084-3.965-.644-3.214 1.796-6.035 4.896-6.035h122.03c2.403 0 4.612 1.609 5.085 3.965.645 3.214-1.797 6.035-4.896 6.035z" fill="#b9fdd1"/><g fill="#b8c1fb"><path d="m249.469 159.458h6.031c2.761 0 5-2.239 5-5v-19c0-2.761-2.239-5-5-5h-6c-2.761 0-5 2.239-5 5v18.915c0 2.809 2.224 5.085 4.969 5.085z"/><path d="m273.47 189.458h6.031c2.761 0 5-2.239 5-5v-49c0-2.761-2.239-5-5-5h-6c-2.761 0-5 2.239-5 5v48.958c-.001 2.785 2.224 5.042 4.969 5.042z"/><path d="m297.47 189.458h6.031c2.761 0 5-2.239 5-5v-49c0-2.761-2.239-5-5-5h-6c-2.761 0-5 2.239-5 5v48.958c-.001 2.785 2.224 5.042 4.969 5.042z"/><path d="m322.47 159.458h6.031c2.761 0 5-2.239 5-5v-19c0-2.761-2.239-5-5-5h-6c-2.761 0-5 2.239-5 5v18.915c-.001 2.809 2.223 5.085 4.969 5.085z"/></g><path d="m161.303 237.97c-29.711 0-53.883-24.172-53.883-53.883s24.172-53.883 53.883-53.883 53.883 24.172 53.883 53.883-24.172 53.883-53.883 53.883zm0-97.766c-24.197 0-43.883 19.686-43.883 43.883s19.686 43.883 43.883 43.883 43.883-19.686 43.883-43.883-19.685-43.883-43.883-43.883z" fill="#eec1db"/><path d="m167.743 179.458h-1.243v-10h5.787c2.404 0 4.613-1.611 5.084-3.968.642-3.214-1.797-6.032-4.897-6.032h-5.974v-1.931c0-2.409-1.617-4.626-3.981-5.087-3.209-.625-6.019 1.784-6.019 4.843v2.174h-.963c-7.454 0-14.019 5.439-14.853 12.846-.984 8.733 5.935 16.154 14.574 16.154h1.243v10h-5.787c-2.404 0-4.613 1.611-5.084 3.968-.642 3.214 1.797 6.032 4.897 6.032h5.974v1.931c0 2.409 1.617 4.626 3.981 5.087 3.209.625 6.019-1.784 6.019-4.843v-2.174h.964c7.453 0 14.018-5.438 14.852-12.844.984-8.734-5.935-16.156-14.574-16.156zm-12.441-1c-2.618 0-4.721-2.248-4.481-4.915.213-2.36 2.349-4.085 4.719-4.085h.96v9zm12.16 20h-.962v-9h1.198c2.617 0 4.72 2.247 4.481 4.913-.211 2.361-2.347 4.087-4.717 4.087z" fill="#f3d7ea"/><path d="m372.873 410.252c-3.739 0-7.479-1.424-10.325-4.271-5.694-5.693-5.694-14.957 0-20.65 5.693-5.693 14.957-5.693 20.65 0 5.694 5.693 5.694 14.957 0 20.65-2.847 2.847-6.586 4.271-10.325 4.271zm0-19.196c-1.179 0-2.357.449-3.255 1.346-1.794 1.795-1.794 4.715 0 6.51 1.795 1.793 4.715 1.793 6.51 0 1.794-1.795 1.794-4.715 0-6.51-.898-.897-2.077-1.346-3.255-1.346z" fill="#84eaa5"/><path d="m409.614 47.03c-3.739 0-7.479-1.424-10.325-4.271-5.694-5.693-5.694-14.958 0-20.651 5.693-5.693 14.957-5.693 20.65 0 2.759 2.757 4.278 6.425 4.278 10.326 0 3.9-1.52 7.567-4.278 10.325v.001c-2.847 2.846-6.586 4.27-10.325 4.27zm0-19.197c-1.179 0-2.357.449-3.255 1.346-1.794 1.795-1.794 4.716 0 6.511 1.795 1.793 4.715 1.793 6.51 0 0-.001 0-.001 0-.001.869-.869 1.349-2.025 1.349-3.254s-.479-2.386-1.349-3.255c-.898-.898-2.076-1.347-3.255-1.347z" fill="#8695f9"/><path d="m189.46 472.485c-3.739 0-7.479-1.424-10.325-4.271-5.693-5.692-5.693-14.957-.001-20.651 5.693-5.693 14.958-5.693 20.651 0 5.693 5.694 5.693 14.959 0 20.651-2.846 2.848-6.585 4.271-10.325 4.271zm0-19.197c-1.179 0-2.357.448-3.255 1.346-1.794 1.795-1.794 4.716 0 6.511 1.795 1.793 4.715 1.793 6.51 0 1.794-1.795 1.794-4.716-.001-6.511-.896-.898-2.075-1.346-3.254-1.346z" fill="#8695f9"/><path d="m341.563 403.458h-3.063v-3.063c0-2.404-1.611-4.613-3.968-5.084-3.214-.642-6.032 1.797-6.032 4.897v3.25h-3.063c-2.404 0-4.613 1.611-5.084 3.968-.642 3.214 1.797 6.032 4.897 6.032h3.25v3.063c0 2.404 1.611 4.613 3.968 5.084 3.214.642 6.032-1.797 6.032-4.897v-3.25h3.25c3.099 0 5.539-2.818 4.897-6.032-.471-2.357-2.68-3.968-5.084-3.968z" fill="#e17db3"/><path d="m110.563 23.458h-3.063v-3.063c0-2.404-1.611-4.613-3.968-5.084-3.214-.642-6.032 1.797-6.032 4.897v3.25h-3.063c-2.404 0-4.613 1.611-5.084 3.968-.642 3.214 1.797 6.032 4.897 6.032h3.25v3.063c0 2.404 1.611 4.613 3.968 5.084 3.214.642 6.032-1.797 6.032-4.897v-3.25h3.25c3.099 0 5.539-2.818 4.897-6.032-.471-2.357-2.68-3.968-5.084-3.968z" fill="#84eaa5"/><path d="m178.5 92.458h-22v-12h-11v12h-21c-2.761 0-5 2.239-5 5v6.895c0 2.404 1.61 4.613 3.968 5.084 3.214.642 6.032-1.797 6.032-4.897v-2.082h44v1.895c0 2.404 1.611 4.613 3.968 5.084 3.214.642 6.032-1.797 6.032-4.897v-7.082c0-2.761-2.238-5-5-5z" fill="#e17db3"/><path d="m283.5 92.458h-22v-12h-11v12h-21c-2.761 0-5 2.239-5 5v6.895c0 2.404 1.611 4.613 3.968 5.084 3.214.642 6.032-1.797 6.032-4.897v-2.082h44v1.895c0 2.404 1.611 4.613 3.968 5.084 3.214.642 6.032-1.797 6.032-4.897v-7.082c0-2.761-2.238-5-5-5z" fill="#e17db3"/><path d="m390.489 92.458h-23.989v-12h-11v12h-21c-2.762 0-5 2.239-5 5v6.895c0 2.404 1.611 4.613 3.968 5.084 3.214.642 6.032-1.797 6.032-4.897v-2.082h44v3.155c0 .963.44 1.879 1.193 2.479 4.164 3.317 8.807.426 8.807-3.552v-9.071c0-1.663-1.348-3.011-3.011-3.011z" fill="#e17db3"/><g fill="#6e80f8"><path d="m279 400.458h17.284c2.404 0 4.613-1.611 5.084-3.968.642-3.214-1.797-6.032-4.897-6.032h-17.284c-2.404 0-4.613 1.611-5.084 3.968-.642 3.214 1.798 6.032 4.897 6.032z"/><path d="m296.471 420.458h-17.284c-2.404 0-4.613 1.611-5.084 3.968-.642 3.214 1.797 6.032 4.897 6.032h17.284c2.404 0 4.613-1.611 5.084-3.968.642-3.214-1.797-6.032-4.897-6.032z"/><path d="m215.765 400.458h17.282c2.404 0 4.613-1.611 5.084-3.968.642-3.214-1.797-6.032-4.897-6.032h-17.282c-2.404 0-4.613 1.611-5.084 3.968-.642 3.214 1.798 6.032 4.897 6.032z"/><path d="m233.234 420.458h-17.282c-2.404 0-4.613 1.611-5.084 3.968-.642 3.214 1.797 6.032 4.897 6.032h17.282c2.404 0 4.613-1.611 5.084-3.968.642-3.214-1.797-6.032-4.897-6.032z"/></g><path d="m360.672 204.458h-5.368c-6.519 0-11.803-5.284-11.803-11.803v-16.394c0-6.519 5.284-11.803 11.803-11.803h5.394c6.519 0 11.803 5.284 11.803 11.803v16.413c-.002 6.498-5.307 11.784-11.829 11.784zm-7.172-28.197v16.395c0 .995.807 1.802 1.802 1.802h5.395c.992 0 1.803-.811 1.803-1.803v-16.394c0-.996-.807-1.803-1.803-1.803h-5.394c-.996 0-1.803.807-1.803 1.803z" fill="#f3d7ea"/><path d="m384.5 201.105v-26.647h-2.029c-.567 0-1.11-.24-1.498-.653-4.036-4.292-1.068-9.347 3.083-9.347h8.508c1.069 0 1.936.867 1.936 1.936v33.126c0 4.151-5.056 7.119-9.347 3.083-.413-.388-.653-.932-.653-1.498z" fill="#f3d7ea"/><path d="m438.5 83.458v197c0 11.046-8.954 20-20 20h-325c-11.046 0-20-8.954-20-20v-197c0-11.046 8.954-20 20-20h325c11.046 0 20 8.954 20 20z" fill="url(#SVGID_2_)"/></g></svg>