<svg id="Capa_1" enable-background="new 0 0 512 512" height="512" viewBox="0 0 512 512" width="512" xmlns="http://www.w3.org/2000/svg" xmlns:xlink="http://www.w3.org/1999/xlink"><pattern id="Unnamed_Pattern_2" height="125.698" overflow="visible" patternUnits="userSpaceOnUse" viewBox="0 -125.698 125.865 125.698" width="125.865" x="-1114" y="2514"><g><path d="m0-125.698h125.865v125.698h-125.865z" fill="none"/><path d="m0 0h125.865v-125.698h-125.865z" fill="none"/><path id="XMLID_51_" d="m125.865-125.698h-125.865v125.698h125.865z" fill="#de5ca2"/></g></pattern><linearGradient id="SVGID_1_" gradientTransform="matrix(1 0 0 -1 -561.6 -3394.99)" gradientUnits="userSpaceOnUse" x1="982.453" x2="743.454" y1="-3476.626" y2="-3847.625"><stop offset=".0112" stop-color="#e3fbec"/><stop offset=".3814" stop-color="#e8efec"/><stop offset="1" stop-color="#f3d7ea"/></linearGradient><pattern id="SVGID_2_" patternTransform="matrix(1 0 0 -1 -1675.6 -21434.104)" xlink:href="#Unnamed_Pattern_2"/><pattern id="SVGID_3_" patternTransform="matrix(1 0 0 -1 -1675.6 -21434.104)" xlink:href="#Unnamed_Pattern_2"/><pattern id="SVGID_4_" patternTransform="matrix(1 0 0 -1 -1675.6 -21434.104)" xlink:href="#Unnamed_Pattern_2"/><linearGradient id="SVGID_5_" gradientUnits="userSpaceOnUse" x1="268.135" x2="268.135" y1="170.034" y2="404.814"><stop offset=".0028" stop-color="#e17db3" stop-opacity="0"/><stop offset="1" stop-color="#e17db3" stop-opacity=".6"/></linearGradient><pattern id="SVGID_6_" patternTransform="matrix(1 0 0 -1 -1675.6 -21434.104)" xlink:href="#Unnamed_Pattern_2"/><g><path d="m364.823 55.215c-69.098-27.035-164.784-16.764-217.662 31.51-37.336 34.085-8.439 43.8 17.016 106.17 18.423 45.14-164.177 38.927-164.177 120.495 0 94.299 132.251 76.424 181.329 87.218 75.036 16.504 140.496 78.242 220.668 70.103 69.795-7.086 96.403-61.855 106.109-124.642 18.082-116.976-26.329-245.094-143.283-290.854z" fill="url(#SVGID_1_)"/><path d="m422.9 190.884v208.93c0 2.76-2.24 5-5 5h-304.53v-213.93c0-11.52 9.33-20.85 20.84-20.85h267.85c11.51 0 20.84 9.33 20.84 20.85z" fill="#b9fdd1"/><path d="m248 267.5v-97.466h-57.36c-1.56 8.35-2.38 16.96-2.38 25.76 0 77.15 62.76 139.91 139.91 139.91 36.5 0 69.79-14.05 94.73-37.03v-31.174z" fill="#8efcb4"/><path d="m361.5 283.804v31.49c0 3.29-2.67 5.96-5.97 5.96h-201.81c-3.3 0-5.97-2.67-5.97-5.96v-31.49c0-3.3 2.67-5.97 5.97-5.97h201.81c3.3 0 5.97 2.67 5.97 5.97z" fill="#f3d7ea"/><path d="m355.53 277.834h-140.64c13.31 18.31 30.94 33.29 51.38 43.42h89.26c3.3 0 5.97-2.67 5.97-5.96v-31.49c0-3.3-2.67-5.97-5.97-5.97z" fill="#eec1db"/><g fill="#e17db3"><path d="m162.867 282.835h-16.707c-2.762 0-5-2.239-5-5s2.238-5 5-5h16.707c2.762 0 5 2.239 5 5s-2.239 5-5 5z"/><path d="m197.969 314.061h-51.81c-2.762 0-5-2.239-5-5s2.238-5 5-5h51.81c2.762 0 5 2.239 5 5s-2.238 5-5 5z"/><path d="m222.679 330.945h-76.52c-2.762 0-5-2.239-5-5s2.238-5 5-5h76.52c2.762 0 5 2.239 5 5s-2.238 5-5 5z"/></g><path d="m422.9 359.185v40.63c0 2.76-2.24 5-5 5h-304.53v-45.63z" fill="#6e80f8"/><circle cx="311.262" cy="195.791" fill="url(#SVGID_2_)" r="5.59"/><circle cx="328.172" cy="195.791" fill="url(#SVGID_3_)" r="5.59"/><circle cx="345.082" cy="195.791" fill="url(#SVGID_4_)" r="5.59"/><path d="m276.808 375.152h-17.342c-2.762 0-5 2.239-5 5s2.238 5 5 5h17.342c2.762 0 5-2.239 5-5s-2.239-5-5-5z" fill="#4059d9"/><path d="m175.978 221.741c0-9.161-7.453-16.613-16.613-16.613s-16.613 7.453-16.613 16.613c0 4.518 1.818 8.615 4.755 11.613-2.936 2.998-4.755 7.095-4.755 11.613 0 2.761 2.238 5 5 5s5-2.239 5-5c0-3.646 2.967-6.613 6.613-6.613s6.613 2.967 6.613 6.613c0 2.761 2.238 5 5 5s5-2.239 5-5c0-4.518-1.818-8.615-4.755-11.613 2.936-2.997 4.755-7.095 4.755-11.613zm-16.614-6.613c3.646 0 6.613 2.967 6.613 6.613s-2.967 6.613-6.613 6.613-6.613-2.967-6.613-6.613 2.967-6.613 6.613-6.613z" fill="#e17db3"/><path d="m422.9 190.884v208.93c0 2.76-2.24 5-5 5h-304.53v-213.93c0-11.52 9.33-20.85 20.84-20.85h267.85c11.51 0 20.84 9.33 20.84 20.85z" fill="url(#SVGID_5_)"/><path d="m456.086 396.51v11.465c0 12.09-9.797 21.898-21.898 21.898h-332.103c-12.101 0-21.898-9.808-21.898-21.898v-11.465c0-6.89 5.586-12.476 12.476-12.476h107.067c1.849 0 3.548 1.021 4.416 2.654l6.56 12.348c.868 1.633 2.566 2.654 4.416 2.654h106.031c1.849 0 3.548-1.021 4.416-2.654l6.56-12.348c.868-1.633 2.566-2.654 4.415-2.654h107.067c6.89 0 12.475 5.585 12.475 12.476z" fill="#b8c1fb"/><path d="m456.088 396.505v11.47c0 12.09-9.8 21.9-21.9 21.9h-14.72c12.1 0 21.9-9.81 21.9-21.9v-11.47c0-6.89-5.59-12.47-12.48-12.47h14.72c6.89 0 12.48 5.58 12.48 12.47z" fill="#d2dbfc"/><path d="m161.787 402.152h-43.333c-2.761 0-5-2.239-5-5v-13.118h53.333v13.118c0 2.761-2.239 5-5 5z" fill="#e17db3"/><path d="m417.695 402.152h-43.333c-2.761 0-5-2.239-5-5v-13.118h53.333v13.118c0 2.761-2.238 5-5 5z" fill="#e17db3"/><path d="m328.172 323.708c-70.532 0-127.914-57.382-127.914-127.915s57.382-127.915 127.914-127.915c70.533 0 127.915 57.382 127.915 127.915s-57.382 127.915-127.915 127.915zm0-191.043c-34.809 0-63.127 28.319-63.127 63.127s28.318 63.127 63.127 63.127 63.128-28.319 63.128-63.127-28.319-63.127-63.128-63.127z" fill="#8695f9"/><path d="m328.172 67.878v64.787c34.809 0 63.128 28.319 63.128 63.127h64.787c0-70.532-57.382-127.914-127.915-127.914z" fill="url(#SVGID_6_)"/><path d="m456.088 195.791h-64.79c0-8.99-1.89-17.56-5.31-25.31l56.46-32.11c8.73 17.27 13.64 36.79 13.64 57.42z" fill="#eec1db"/><path d="m96.474 153.923c-3.739 0-7.479-1.423-10.326-4.27-5.693-5.695-5.693-14.959 0-20.652 5.694-5.693 14.959-5.692 20.651 0 5.693 5.693 5.693 14.958.001 20.651h-.001c-2.846 2.848-6.586 4.271-10.325 4.271zm6.79-7.805h.01zm-6.79-11.391c-1.179 0-2.358.449-3.256 1.346-1.794 1.794-1.794 4.714.001 6.509 1.793 1.794 4.715 1.794 6.51 0 1.794-1.794 1.794-4.715 0-6.509-.898-.898-2.077-1.346-3.255-1.346z" fill="#84eaa5"/><path d="m464.338 294.544h-3.25v-3.25c0-2.761-2.238-5-5-5s-5 2.239-5 5v3.25h-3.25c-2.762 0-5 2.239-5 5s2.238 5 5 5h3.25v3.25c0 2.761 2.238 5 5 5s5-2.239 5-5v-3.25h3.25c2.762 0 5-2.239 5-5s-2.238-5-5-5z" fill="#e17db3"/><path d="m72.412 176.469h-3.25v-3.25c0-2.761-2.238-5-5-5s-5 2.239-5 5v3.25h-3.25c-2.762 0-5 2.239-5 5s2.238 5 5 5h3.25v3.25c0 2.761 2.238 5 5 5s5-2.239 5-5v-3.25h3.25c2.762 0 5-2.239 5-5s-2.238-5-5-5z" fill="#8695f9"/><path d="m473.94 359.18c-3.739 0-7.479-1.423-10.325-4.27-5.694-5.694-5.694-14.958 0-20.652 5.693-5.693 14.957-5.693 20.65 0 5.694 5.694 5.694 14.958 0 20.652-2.846 2.846-6.585 4.27-10.325 4.27zm0-19.197c-1.179 0-2.357.449-3.255 1.346-1.794 1.794-1.794 4.715 0 6.509 1.795 1.795 4.715 1.795 6.51 0 1.794-1.794 1.794-4.715 0-6.509-.897-.897-2.076-1.346-3.255-1.346z" fill="#84eaa5"/><path d="m419.468 71.578c-3.739 0-7.479-1.423-10.325-4.27-5.693-5.694-5.693-14.958 0-20.652s14.957-5.693 20.65 0 5.693 14.958.001 20.651h-.001c-2.847 2.848-6.586 4.271-10.325 4.271zm6.79-7.806h.01zm-6.79-11.391c-1.179 0-2.357.449-3.255 1.346-1.794 1.794-1.794 4.715.001 6.51 1.793 1.794 4.714 1.794 6.509 0 1.794-1.794 1.794-4.715 0-6.509-.898-.898-2.077-1.347-3.255-1.347z" fill="#e17db3"/></g></svg>