<svg id="Capa_1" enable-background="new 0 0 512 512" height="512" viewBox="0 0 512 512" width="512" xmlns="http://www.w3.org/2000/svg" xmlns:xlink="http://www.w3.org/1999/xlink"><pattern id="Unnamed_Pattern_2" height="125.698" overflow="visible" patternUnits="userSpaceOnUse" viewBox="0 -125.698 125.865 125.698" width="125.865" x="1014" y="2514"><g><path d="m0-125.698h125.865v125.698h-125.865z" fill="none"/><path d="m0 0h125.865v-125.698h-125.865z" fill="none"/><path id="XMLID_51_" d="m125.865-125.698h-125.865v125.698h125.865z" fill="#de5ca2"/></g></pattern><linearGradient id="SVGID_1_" gradientTransform="matrix(1 0 0 -1 0 4238)" gradientUnits="userSpaceOnUse" x1="-9.013" x2="466.018" y1="4090.886" y2="3862.597"><stop offset="0" stop-color="#c7d0fb"/><stop offset=".593" stop-color="#e0d5f1"/><stop offset=".997" stop-color="#f3d7ea"/></linearGradient><pattern id="SVGID_2_" patternTransform="matrix(1 0 0 -1 1201.16 -21530.291)" xlink:href="#Unnamed_Pattern_2"/><linearGradient id="SVGID_3_" gradientUnits="userSpaceOnUse" x1="246.942" x2="246.942" y1="218.716" y2="474.108"><stop offset=".0028" stop-color="#e17db3" stop-opacity="0"/><stop offset="1" stop-color="#e17db3" stop-opacity=".6"/></linearGradient><g><path d="m471.476 127.434c-65.417-50.293-128.867-9.306-199.64-23.797-71.285-14.597-99.685-63.201-180.876-40.766-71.922 19.873-115.562 99.551-76.024 166.258 11.267 19.009 30.461 33.35 38.305 54.619 12.653 34.311-6.607 60.653-2.85 94.372 15.612 140.101 229.574 85.834 308.303 42.245 123.47-68.36 206.998-220.497 112.782-292.931z" fill="url(#SVGID_1_)"/><path d="m273.52 59.85v221.49h-163.06v-221.49c0-4.81 3.9-8.71 8.71-8.71h145.65c4.81 0 8.7 3.9 8.7 8.71z" fill="#8efcb4"/><path d="m273.52 96.33v185.01h-93.77v-176.31c0-4.81 3.9-8.7 8.71-8.7z" fill="#84eaa5"/><path d="m358.81 93.526v187.81h-163.06v-187.81c0-4.81 3.9-8.7 8.71-8.7h145.65c4.8 0 8.7 3.89 8.7 8.7z" fill="#a1adf9"/><path d="m407.87 268.641v155.55c0 27.57-22.34 49.92-49.91 49.92h-204.56c-11.75 0-21.27-9.52-21.27-21.27v-212.86c0-11.75 9.52-21.27 21.27-21.27h204.56c13.17 0 25.15 5.1 34.06 13.43.91.86 1.79 1.75 2.64 2.67 8.2 8.9 13.21 20.77 13.21 33.83z" fill="#6e80f8"/><path d="m407.874 313.982v94.714h-107.035c-5.873 0-10.634-4.748-10.634-10.621v-73.458c0-5.873 4.761-10.634 10.634-10.634h107.035z" fill="#5169f7"/><path d="m85.71 452.845c0 11.743 9.52 21.263 21.263 21.263h204.558c27.573 0 49.925-22.352 49.925-49.925v-155.542c0-27.573-22.352-49.925-49.925-49.925h-204.558c-11.743 0-21.263 9.52-21.263 21.263z" fill="#e17db3"/><path d="m361.453 313.982v94.714h-60.614c-5.873 0-10.634-4.748-10.634-10.621v-73.458c0-5.873 4.761-10.634 10.634-10.634h60.614z" fill="url(#SVGID_2_)"/><path d="m213.236 306.191h-88.549c-3.612 0-6.54-2.928-6.54-6.54v-20.601c0-3.612 2.928-6.54 6.54-6.54h88.549c3.612 0 6.54 2.928 6.54 6.54v20.601c.001 3.612-2.928 6.54-6.54 6.54z" fill="#f3d7ea"/><path d="m170.072 339.327h-45.385c-3.612 0-6.54-2.928-6.54-6.54v-4.905c0-3.612 2.928-6.54 6.54-6.54h45.385c3.612 0 6.54 2.928 6.54 6.54v4.905c0 3.612-2.928 6.54-6.54 6.54z" fill="#de5ca2"/><path d="m178.093 259.756h-52.752c-3.973 0-7.194-3.221-7.194-7.194s3.221-7.194 7.194-7.194h52.752c3.973 0 7.194 3.221 7.194 7.194s-3.221 7.194-7.194 7.194z" fill="#f3d7ea"/><g fill="#d2dbfc"><path d="m315.66 144.634c-1.28 0-2.559-.488-3.536-1.464-1.953-1.953-1.953-5.119 0-7.071l17.667-17.667c1.953-1.952 5.118-1.952 7.071 0 1.953 1.953 1.953 5.119 0 7.071l-17.667 17.667c-.976.976-2.255 1.464-3.535 1.464z"/><path d="m289.342 144.634c-1.28 0-2.559-.488-3.536-1.464-1.953-1.953-1.953-5.119 0-7.071l17.667-17.667c1.953-1.952 5.118-1.952 7.071 0 1.953 1.953 1.953 5.119 0 7.071l-17.667 17.667c-.976.976-2.255 1.464-3.535 1.464z"/><path d="m315.66 180.073c-1.28 0-2.559-.488-3.536-1.464-1.953-1.953-1.953-5.119 0-7.071l17.667-17.667c1.953-1.952 5.118-1.952 7.071 0 1.953 1.953 1.953 5.119 0 7.071l-17.667 17.667c-.976.975-2.255 1.464-3.535 1.464z"/><path d="m289.342 180.073c-1.28 0-2.559-.488-3.536-1.464-1.953-1.953-1.953-5.119 0-7.071l17.667-17.667c1.953-1.952 5.118-1.952 7.071 0 1.953 1.953 1.953 5.119 0 7.071l-17.667 17.667c-.976.975-2.255 1.464-3.535 1.464z"/></g><path d="m157.612 94.971h-1.243v-9.335h5.974c2.761 0 5-2.239 5-5s-2.239-5-5-5h-5.974v-2.199c0-2.761-2.239-5-5-5s-5 2.239-5 5v2.199h-1.243c-8.088 0-14.667 6.58-14.667 14.667s6.58 14.667 14.667 14.667h1.243v9.335h-5.974c-2.761 0-5 2.239-5 5s2.239 5 5 5h5.974v2.199c0 2.761 2.239 5 5 5s5-2.239 5-5v-2.199h1.243c8.088 0 14.667-6.58 14.667-14.667s-6.579-14.667-14.667-14.667zm-12.486 0c-2.574 0-4.667-2.094-4.667-4.667s2.094-4.667 4.667-4.667h1.243v9.335zm12.486 19.335h-1.243v-9.335h1.243c2.574 0 4.667 2.094 4.667 4.667s-2.093 4.668-4.667 4.668z" fill="#fff"/><path d="m249.213 145.227h-19.008c.537-1.411.818-2.923.818-4.478v-6.311h6.422c2.761 0 5-2.239 5-5s-2.239-5-5-5h-6.422v-6.355c0-2.948 2.399-5.347 5.347-5.347s5.347 2.398 5.347 5.347c0 2.761 2.239 5 5 5s5-2.239 5-5c0-8.462-6.884-15.347-15.347-15.347s-15.347 6.884-15.347 15.347v6.355h-.961c-2.761 0-5 2.239-5 5s2.239 5 5 5h.961v6.311c0 .684-.266 1.327-.751 1.812-2.129 2.13-2.76 5.304-1.607 8.086s3.843 4.58 6.855 4.58h23.693c2.761 0 5-2.239 5-5s-2.238-5-5-5z" fill="#d2dbfc"/><path d="m85.71 452.845c0 11.743 9.52 21.263 21.263 21.263h251.276c27.573 0 49.925-22.352 49.925-49.925v-155.542c0-27.573-22.352-49.925-49.925-49.925h-251.276c-11.743 0-21.263 9.52-21.263 21.263z" fill="url(#SVGID_3_)"/><path d="m415.659 393.772h-114.82c-5.872 0-10.631-4.76-10.631-10.632v-73.457c0-5.872 4.76-10.632 10.631-10.632h114.82c5.872 0 10.632 4.76 10.632 10.632v73.457c-.001 5.872-4.761 10.632-10.632 10.632z" fill="#8695f9"/><path d="m426.29 309.681v73.46c0 5.87-4.76 10.63-10.63 10.63h-15.67c5.87 0 10.63-4.76 10.63-10.63v-73.46c0-5.87-4.76-10.63-10.63-10.63h15.67c5.87 0 10.63 4.76 10.63 10.63z" fill="#a1adf9"/><path d="m376.418 393.772h-75.58c-5.872 0-10.631-4.76-10.631-10.632v-73.457c0-5.872 4.76-10.632 10.631-10.632h75.58c5.872 0 10.632 4.76 10.632 10.632v73.457c-.001 5.872-4.76 10.632-10.632 10.632z" fill="#e8a4cb"/><path d="m387.05 309.681v73.46c0 5.87-4.76 10.63-10.63 10.63h-15.67c5.87 0 10.63-4.76 10.63-10.63v-73.46c0-5.87-4.76-10.63-10.63-10.63h15.67c5.87 0 10.63 4.76 10.63 10.63z" fill="#eec1db"/><path d="m332.455 327.036h-16.752c-3.145 0-5.694-2.549-5.694-5.694s2.549-5.694 5.694-5.694h16.752c3.145 0 5.694 2.549 5.694 5.694s-2.549 5.694-5.694 5.694z" fill="#f3d7ea"/><path d="m450.21 232.118h-3.25v-3.25c0-2.761-2.239-5-5-5s-5 2.239-5 5v3.25h-3.25c-2.761 0-5 2.239-5 5s2.239 5 5 5h3.25v3.25c0 2.761 2.239 5 5 5s5-2.239 5-5v-3.25h3.25c2.761 0 5-2.239 5-5s-2.239-5-5-5z" fill="#e17db3"/><path d="m318.259 46.139h-3.25v-3.25c0-2.761-2.239-5-5-5s-5 2.239-5 5v3.25h-3.25c-2.761 0-5 2.239-5 5s2.239 5 5 5h3.25v3.25c0 2.761 2.239 5 5 5s5-2.239 5-5v-3.25h3.25c2.761 0 5-2.239 5-5s-2.238-5-5-5z" fill="#84eaa5"/><path d="m77 178.08h-3.25v-3.25c0-2.761-2.239-5-5-5s-5 2.239-5 5v3.25h-3.25c-2.761 0-5 2.239-5 5s2.239 5 5 5h3.25v3.25c0 2.761 2.239 5 5 5s5-2.239 5-5v-3.25h3.25c2.761 0 5-2.239 5-5s-2.239-5-5-5z" fill="#e17db3"/><path d="m428.81 203.592c-8.052 0-14.603-6.551-14.603-14.603s6.551-14.603 14.603-14.603 14.603 6.551 14.603 14.603-6.551 14.603-14.603 14.603zm0-19.206c-2.538 0-4.603 2.065-4.603 4.603s2.065 4.603 4.603 4.603 4.603-2.064 4.603-4.603-2.065-4.603-4.603-4.603z" fill="#8695f9"/><path d="m36.397 446.2c-8.052 0-14.603-6.551-14.603-14.603s6.551-14.603 14.603-14.603 14.603 6.551 14.603 14.603-6.551 14.603-14.603 14.603zm0-19.206c-2.538 0-4.603 2.064-4.603 4.603s2.065 4.603 4.603 4.603 4.603-2.065 4.603-4.603-2.064-4.603-4.603-4.603z" fill="#84eaa5"/></g></svg>