<svg id="Capa_1" enable-background="new 0 0 512.001 512.001" height="512" viewBox="0 0 512.001 512.001" width="512" xmlns="http://www.w3.org/2000/svg" xmlns:xlink="http://www.w3.org/1999/xlink"><linearGradient id="SVGID_1_" gradientTransform="matrix(1 0 0 -1 0 -1082)" gradientUnits="userSpaceOnUse" x1="222.235" x2="284.235" y1="-1226.623" y2="-1417.956"><stop offset=".0112" stop-color="#e3fbec"/><stop offset=".7774" stop-color="#cedbf8"/><stop offset="1" stop-color="#c7d0fb"/></linearGradient><linearGradient id="SVGID_2_" gradientUnits="userSpaceOnUse" x1="256" x2="256" y1="33.793" y2="478.213"><stop offset=".0028" stop-color="#e17db3" stop-opacity="0"/><stop offset="1" stop-color="#e17db3" stop-opacity=".6"/></linearGradient><g><path d="m501.873 134.25c-22.357-56.888-91.226-91.003-149.556-68.427-68.57 26.539-43.27 131.236-104.983 153.088-32.669 11.568-80.963-31.644-113.969-38.27-60.821-12.211-115.881 30.704-129.439 90.134-13.832 60.63 8.353 141.61 74.967 158.066 79.35 19.602 120.683-51.729 187.249-72.211 68.31-21.019 144.263 28.622 200.814-31.776 41.78-44.621 57.055-134.272 34.917-190.604z" fill="url(#SVGID_1_)"/><path d="m379.82 54.793v402.42c0 11.6-9.4 21-21 21h-205.64c-11.6 0-21-9.4-21-21v-402.42c0-11.6 9.4-21 21-21h205.64c11.601 0 21 9.4 21 21z" fill="#b9fdd1"/><path d="m379.82 78.433v142.22c-.44.01-.89.01-1.33.01-39.28 0-71.12-31.84-71.12-71.12s31.84-71.12 71.12-71.12c.44 0 .89 0 1.33.01z" fill="#8efcb4"/><path d="m212.33 302.713c0 39.28-31.84 71.12-71.12 71.12-3.06 0-6.07-.19-9.03-.57v-141.1c2.96-.38 5.97-.57 9.03-.57 39.28 0 71.12 31.84 71.12 71.12z" fill="#8efcb4"/><path d="m339.921 149.033v66.88c0 2.76-2.24 5-5 5h-160.191c-2.76 0-5-2.24-5-5v-66.88c0-2.76 2.24-5 5-5h160.19c2.76 0 5.001 2.24 5.001 5z" fill="#f3d7ea"/><path d="m339.921 149.033v60.27c-19.59-12.66-32.55-34.7-32.55-59.76 0-1.85.07-3.69.21-5.51h27.34c2.759 0 5 2.24 5 5z" fill="#eec1db"/><path d="m379.818 88v-33.213c0-11.598-9.402-21-21-21h-205.636c-11.598 0-21 9.402-21 21v33.213z" fill="#6e80f8"/><path d="m379.82 54.787v33.21h-21.88v-33.21c0-11.6-9.4-21-21-21h21.88c11.601 0 21 9.399 21 21z" fill="#8695f9"/><g fill="#fff"><circle cx="166.833" cy="61.983" r="5.59"/><circle cx="186.743" cy="61.983" r="5.59"/><path d="m206.654 56.393c3.087 0 5.59 2.503 5.59 5.59s-2.503 5.59-5.59 5.59-5.59-2.503-5.59-5.59 2.503-5.59 5.59-5.59z"/></g><path d="m402.981 374.094 24.45-25.89c1.98-2.09 5.3-2.09 7.27 0l24.46 25.89c3.02 3.19.75 8.43-3.63 8.43h-12.13v38.26c0 2.76-2.24 5-5 5h-14.66c-2.77 0-5-2.24-5-5v-38.26h-12.13c-4.39 0-6.65-5.24-3.63-8.43z" fill="#8efcb4"/><path d="m52.841 146.789 24.45-25.89c1.98-2.09 5.3-2.09 7.27 0l24.46 25.89c3.02 3.19.75 8.43-3.63 8.43h-12.13v38.26c0 2.76-2.24 5-5 5h-14.66c-2.77 0-5-2.24-5-5v-38.26h-12.13c-4.39 0-6.65-5.24-3.63-8.43z" fill="#8efcb4"/><path d="m184.847 149.037h-16.707c-2.762 0-5-2.239-5-5s2.238-5 5-5h16.707c2.762 0 5 2.239 5 5s-2.238 5-5 5z" fill="#fff"/><path d="m219.95 180.264h-51.81c-2.762 0-5-2.239-5-5s2.238-5 5-5h51.81c2.762 0 5 2.239 5 5s-2.239 5-5 5z" fill="#fff"/><path d="m244.66 197.147h-76.52c-2.762 0-5-2.239-5-5s2.238-5 5-5h76.52c2.762 0 5 2.239 5 5s-2.239 5-5 5z" fill="#fff"/><path d="m240.24 396.755v7.844c0 1.998-1.62 3.618-3.618 3.618h-6.498c-1.998 0-3.618-1.62-3.618-3.618v-7.844c0-1.998 1.62-3.618 3.618-3.618h6.498c1.999 0 3.618 1.62 3.618 3.618z" fill="#e17db3"/><path d="m262.867 385.901v18.698c0 1.998-1.62 3.618-3.618 3.618h-6.498c-1.998 0-3.618-1.62-3.618-3.618v-18.698c0-1.998 1.62-3.618 3.618-3.618h6.498c1.998 0 3.618 1.62 3.618 3.618z" fill="#eec1db"/><path d="m217.614 396.755v7.844c0 1.998-1.62 3.618-3.618 3.618h-6.498c-1.998 0-3.618-1.62-3.618-3.618v-7.844c0-1.998 1.62-3.618 3.618-3.618h6.498c1.998 0 3.618 1.62 3.618 3.618z" fill="#6e80f8"/><path d="m194.987 396.755v7.844c0 1.998-1.62 3.618-3.618 3.618h-6.498c-1.998 0-3.618-1.62-3.618-3.618v-7.844c0-1.998 1.62-3.618 3.618-3.618h6.498c1.999 0 3.618 1.62 3.618 3.618z" fill="#8695f9"/><path d="m172.361 396.755v7.844c0 1.998-1.62 3.618-3.618 3.618h-6.498c-1.998 0-3.618-1.62-3.618-3.618v-7.844c0-1.998 1.62-3.618 3.618-3.618h6.498c1.998 0 3.618 1.62 3.618 3.618z" fill="#a1adf9"/><path d="m285.493 378.665v25.933c0 1.998-1.62 3.618-3.618 3.618h-6.498c-1.998 0-3.618-1.62-3.618-3.618v-25.933c0-1.998 1.62-3.618 3.618-3.618h6.498c1.999.001 3.618 1.62 3.618 3.618z" fill="#f3d7ea"/><path d="m308.12 385.901v18.698c0 1.998-1.62 3.618-3.618 3.618h-6.498c-1.998 0-3.618-1.62-3.618-3.618v-18.698c0-1.998 1.62-3.618 3.618-3.618h6.498c1.998 0 3.618 1.62 3.618 3.618z" fill="#f3d7ea"/><path d="m330.746 367.812v36.787c0 1.998-1.62 3.618-3.618 3.618h-6.498c-1.998 0-3.618-1.62-3.618-3.618v-36.787c0-1.998 1.62-3.618 3.618-3.618h6.498c1.999 0 3.618 1.62 3.618 3.618z" fill="#8efcb4"/><path d="m353.373 349.723v54.876c0 1.998-1.62 3.618-3.618 3.618h-6.498c-1.998 0-3.618-1.62-3.618-3.618v-54.876c0-1.998 1.62-3.618 3.618-3.618h6.498c1.998 0 3.618 1.62 3.618 3.618z" fill="#84eaa5"/><path d="m54.592 111.371c-3.739 0-7.479-1.424-10.326-4.271-5.694-5.693-5.694-14.958 0-20.651 5.693-5.693 14.958-5.693 20.651 0 2.758 2.758 4.277 6.425 4.277 10.325 0 3.901-1.519 7.568-4.278 10.327v-.001.001c-2.845 2.846-6.585 4.27-10.324 4.27zm0-19.197c-1.179 0-2.357.449-3.254 1.346-1.795 1.795-1.795 4.716 0 6.511 1.794 1.793 4.715 1.793 6.509 0v-.001c.869-.869 1.348-2.024 1.348-3.255 0-1.229-.479-2.385-1.348-3.254-.898-.898-2.076-1.347-3.255-1.347z" fill="#8695f9"/><path d="m468.916 293.603c-3.74 0-7.479-1.423-10.326-4.271-5.693-5.692-5.693-14.957 0-20.651 5.695-5.694 14.959-5.693 20.652-.001 5.694 5.695 5.693 14.96 0 20.652v.001c-2.847 2.847-6.587 4.27-10.326 4.27zm6.791-7.805h.01zm-6.79-11.392c-1.179 0-2.357.448-3.255 1.346-1.794 1.795-1.795 4.716 0 6.511 1.794 1.793 4.714 1.794 6.51-.001 1.794-1.794 1.794-4.715-.001-6.51-.898-.897-2.076-1.346-3.254-1.346z" fill="#8695f9"/><path d="m98.5 470.787c-3.739 0-7.479-1.424-10.326-4.271-2.758-2.758-4.277-6.425-4.277-10.325s1.519-7.567 4.278-10.326c2.757-2.758 6.424-4.277 10.325-4.277s7.568 1.52 10.326 4.278 4.277 6.425 4.277 10.325-1.519 7.567-4.278 10.326v-.001.001c-2.846 2.846-6.586 4.27-10.325 4.27zm0-19.199c-1.229 0-2.385.479-3.254 1.349-.87.87-1.349 2.025-1.349 3.255s.479 2.385 1.348 3.254c1.795 1.795 4.715 1.794 6.509.001v-.001c.869-.869 1.348-2.024 1.348-3.254s-.479-2.385-1.348-3.254c-.869-.871-2.025-1.35-3.254-1.35z" fill="#e17db3"/><path d="m90.977 56.593h-3.25v-3.25c0-2.762-2.239-5-5-5s-5 2.238-5 5v3.25h-3.25c-2.761 0-5 2.238-5 5s2.239 5 5 5h3.25v3.25c0 2.762 2.239 5 5 5s5-2.238 5-5v-3.25h3.25c2.761 0 5-2.238 5-5s-2.239-5-5-5z" fill="#e17db3"/><path d="m485.416 339.933h-3.25v-3.25c0-2.762-2.239-5-5-5s-5 2.238-5 5v3.25h-3.25c-2.761 0-5 2.238-5 5s2.239 5 5 5h3.25v3.25c0 2.762 2.239 5 5 5s5-2.238 5-5v-3.25h3.25c2.761 0 5-2.238 5-5s-2.239-5-5-5z" fill="#84eaa5"/><g><path d="m256 449.337c1.328 0 2.601-.528 3.539-1.468l5.83-5.84c1.951-1.954 1.948-5.12-.006-7.07-1.954-1.951-5.12-1.949-7.071.006l-2.292 2.295-2.292-2.295c-1.951-1.955-5.117-1.957-7.071-.006-1.954 1.95-1.957 5.116-.006 7.07l5.83 5.84c.938.939 2.211 1.468 3.539 1.468z" fill="#79d591"/></g><path d="m286.335 144.037c0-9.16-7.453-16.613-16.613-16.613s-16.613 7.453-16.613 16.613c0 4.518 1.818 8.615 4.755 11.613-2.936 2.998-4.755 7.095-4.755 11.613 0 2.762 2.239 5 5 5s5-2.238 5-5c0-3.646 2.967-6.613 6.613-6.613s6.613 2.967 6.613 6.613c0 2.762 2.239 5 5 5s5-2.238 5-5c0-4.518-1.818-8.615-4.755-11.613 2.937-2.998 4.755-7.095 4.755-11.613zm-16.613-6.613c3.646 0 6.613 2.967 6.613 6.613s-2.967 6.613-6.613 6.613-6.613-2.967-6.613-6.613 2.967-6.613 6.613-6.613z" fill="#e17db3"/><path d="m379.82 54.793v402.42c0 11.6-9.4 21-21 21h-205.64c-11.6 0-21-9.4-21-21v-402.42c0-11.6 9.4-21 21-21h205.64c11.601 0 21 9.4 21 21z" fill="url(#SVGID_2_)"/><path d="m422.62 312.63c-1.95 1.95-5.11 1.95-7.07 0l-28.12-28.13h-19.39c-4.01 0-7.78-1.56-10.61-4.39l-18.6-18.6c-.95-.95-2.2-1.47-3.54-1.47h-24.71c-1.34 0-2.59.52-3.54 1.47l-49.22 49.22c-2.84 2.84-6.6 4.4-10.61 4.4h-41.793c1.4-3.22 2.57-6.56 3.51-10h38.283c1.34 0 2.59-.52 3.54-1.47l49.22-49.22c2.83-2.84 6.6-4.4 10.61-4.4h24.71c4.01 0 7.78 1.56 10.61 4.4l18.6 18.6c.95.95 2.2 1.46 3.54 1.46h21.46c1.33 0 2.6.53 3.54 1.47l29.58 29.59c1.96 1.95 1.96 5.12 0 7.07z" fill="#e17db3"/><path d="m444.23 215.49-29.61 29.61c-2.84 2.83-6.6 4.39-10.61 4.39h-67.24c-1.33 0-2.59.52-3.53 1.47l-15.69 15.69c-2.83 2.83-6.6 4.39-10.61 4.39h-38.22c-1.34 0-2.59.52-3.54 1.47l-13.28 13.28c-2.83 2.83-6.6 4.39-10.61 4.39h-29.044c.11-1.69.17-3.39.17-5.1 0-1.65-.05-3.28-.16-4.9h29.034c1.34 0 2.59-.52 3.54-1.47l13.28-13.28c2.83-2.83 6.6-4.39 10.61-4.39h38.22c1.34 0 2.59-.52 3.54-1.46l15.69-15.69c2.83-2.84 6.6-4.4 10.6-4.4h67.24c1.32 0 2.6-.53 3.53-1.46l29.61-29.61c1.96-1.95 5.12-1.95 7.08 0 1.95 1.95 1.95 5.12 0 7.07z" fill="#8695f9"/><path d="m443.18 256.37-44.5 44.5c-2.84 2.84-6.6 4.4-10.61 4.4h-44.11c-1.34 0-2.6.52-3.54 1.46l-12.46 12.46c-2.83 2.83-6.6 4.39-10.6 4.39h-46.48c-1.34 0-2.59.52-3.54 1.46l-9.52 9.53c-2.84 2.83-6.6 4.39-10.61 4.39h-59.62c3.09-3.09 5.92-6.43 8.45-10h51.171c1.34 0 2.59-.52 3.54-1.46l9.52-9.53c2.84-2.83 6.6-4.39 10.61-4.39h46.48c1.33 0 2.59-.52 3.53-1.46l12.46-12.46c2.83-2.83 6.6-4.39 10.61-4.39h44.11c1.34 0 2.59-.52 3.54-1.47l44.5-44.5c1.96-1.96 5.12-1.96 7.07 0 1.959 1.95 1.959 5.11-.001 7.07z" fill="#84eaa5"/><ellipse cx="378.492" cy="131.911" fill="#e17db3" rx="71.122" ry="71.122" transform="matrix(.164 -.987 .987 .164 186.364 483.683)"/><circle cx="141.209" cy="285.079" fill="#e17db3" r="71.122"/><path d="m378.492 185.794c-29.711 0-53.883-24.172-53.883-53.883s24.172-53.883 53.883-53.883 53.883 24.172 53.883 53.883-24.172 53.883-53.883 53.883zm0-97.766c-24.197 0-43.883 19.686-43.883 43.883s19.686 43.883 43.883 43.883 43.883-19.686 43.883-43.883-19.686-43.883-43.883-43.883z" fill="#eec1db"/><path d="m384.735 126.91h-1.243v-9.335h5.974c2.761 0 5-2.238 5-5s-2.239-5-5-5h-5.974v-2.199c0-2.762-2.239-5-5-5s-5 2.238-5 5v2.199h-1.243c-8.088 0-14.667 6.579-14.667 14.667s6.58 14.668 14.667 14.668h1.243v9.335h-5.974c-2.761 0-5 2.238-5 5s2.239 5 5 5h5.974v2.198c0 2.762 2.239 5 5 5s5-2.238 5-5v-2.198h1.243c8.088 0 14.667-6.58 14.667-14.668s-6.579-14.667-14.667-14.667zm-12.486 0c-2.574 0-4.667-2.094-4.667-4.668 0-2.573 2.094-4.667 4.667-4.667h1.243v9.335zm12.486 19.335h-1.243v-9.335h1.243c2.574 0 4.667 2.094 4.667 4.667 0 2.574-2.093 4.668-4.667 4.668z" fill="#f3d7ea"/><path d="m141.208 338.962c-29.711 0-53.883-24.172-53.883-53.883s24.172-53.883 53.883-53.883 53.883 24.172 53.883 53.883-24.172 53.883-53.883 53.883zm0-97.766c-24.197 0-43.883 19.686-43.883 43.883s19.686 43.883 43.883 43.883 43.883-19.686 43.883-43.883-19.685-43.883-43.883-43.883z" fill="#eec1db"/><path d="m147.452 280.078h-1.243v-9.335h5.974c2.761 0 5-2.238 5-5s-2.239-5-5-5h-5.974v-2.199c0-2.762-2.239-5-5-5s-5 2.238-5 5v2.199h-1.243c-8.088 0-14.667 6.579-14.667 14.667s6.58 14.668 14.667 14.668h1.243v9.335h-5.974c-2.761 0-5 2.238-5 5s2.239 5 5 5h5.974v2.198c0 2.762 2.239 5 5 5s5-2.238 5-5v-2.198h1.243c8.088 0 14.667-6.58 14.667-14.668s-6.579-14.667-14.667-14.667zm-12.486 0c-2.574 0-4.667-2.094-4.667-4.668 0-2.573 2.094-4.667 4.667-4.667h1.243v9.335zm12.486 19.335h-1.243v-9.335h1.243c2.574 0 4.667 2.094 4.667 4.667 0 2.574-2.094 4.668-4.667 4.668z" fill="#f3d7ea"/></g></svg>