<svg id="Capa_1" enable-background="new 0 0 512 512" height="512" viewBox="0 0 512 512" width="512" xmlns="http://www.w3.org/2000/svg" xmlns:xlink="http://www.w3.org/1999/xlink"><linearGradient id="SVGID_1_" gradientTransform="matrix(1 0 0 -1 0 -2146)" gradientUnits="userSpaceOnUse" x1="513.711" x2="123.733" y1="-2243.506" y2="-2552.49"><stop offset="0" stop-color="#c7d0fb"/><stop offset=".593" stop-color="#e0d5f1"/><stop offset=".997" stop-color="#f3d7ea"/></linearGradient><linearGradient id="SVGID_2_" gradientUnits="userSpaceOnUse" x1="230.5" x2="230.5" y1="159.382" y2="431.472"><stop offset=".0028" stop-color="#e17db3" stop-opacity="0"/><stop offset="1" stop-color="#e17db3" stop-opacity=".6"/></linearGradient><g><path d="m364.823 52.107c-69.098-27.035-164.784-16.764-217.662 31.51-37.336 34.085-8.439 43.8 17.016 106.17 18.423 45.14-164.177 38.927-164.177 120.495 0 94.299 132.251 76.424 181.329 87.218 75.036 16.504 140.496 78.242 220.668 70.103 69.795-7.086 96.403-61.855 106.109-124.642 18.082-116.976-26.329-245.094-143.283-290.854z" fill="url(#SVGID_1_)"/><path d="m452.5 126.41v200c0 11.04-8.95 20-20 20h-302c-11.05 0-20-8.96-20-20v-200c0-11.05 8.95-20 20-20h208.82l29.14-29.15c6.3-6.3 17.08-1.84 17.08 7.07v22.08h46.96c11.05 0 20 8.95 20 20z" fill="#eec1db"/><path d="m295.813 311.41v-170c0-2.761 2.239-5 5-5h116.687c2.761 0 5 2.239 5 5v170c0 2.761-2.239 5-5 5h-116.687c-2.761 0-5-2.239-5-5z" fill="#f3d7ea"/><path d="m146.446 311.41v-170c0-2.761 2.239-5 5-5h116.687c2.761 0 5 2.239 5 5v170c0 2.761-2.239 5-5 5h-116.687c-2.761 0-5-2.239-5-5z" fill="#f3d7ea"/><path d="m401.5 179.382v200c0 11.04-8.95 20-20 20h-208.82l-29.14 29.14c-6.3 6.3-17.08 1.84-17.08-7.07v-22.07h-46.96c-11.05 0-20-8.96-20-20v-200c0-11.05 8.95-20 20-20h302c11.05 0 20 8.95 20 20z" fill="#8efcb4"/><path d="m401.5 179.382v179.03h-271c-17.64 0-32-14.35-32-32v-167.03h283c11.05 0 20 8.95 20 20z" fill="#84eaa5"/><path d="m401.5 179.382v167.03h-271c-11.05 0-20-8.96-20-20v-167.03h271c11.05 0 20 8.95 20 20z" fill="#8695f9"/><path d="m204.998 321.188h-57.911c-2.761 0-5-2.239-5-5v-57.911c0-2.761 2.239-5 5-5h57.911c2.761 0 5 2.239 5 5v57.911c0 2.761-2.239 5-5 5z" fill="#a1adf9"/><path d="m239.607 315.315h-59.635c-2.762 0-5-2.239-5-5s2.238-5 5-5h59.635c2.762 0 5 2.239 5 5s-2.239 5-5 5z" fill="#f3d7ea"/><path d="m239.607 296.909h-32.409c-2.762 0-5-2.239-5-5s2.238-5 5-5h32.409c2.762 0 5 2.239 5 5s-2.239 5-5 5z" fill="#f3d7ea"/><path d="m74.477 123.401c-3.74 0-7.479-1.423-10.326-4.271-5.693-5.693-5.693-14.957 0-20.65 2.758-2.759 6.425-4.278 10.326-4.278s7.568 1.52 10.326 4.278c5.693 5.693 5.693 14.957 0 20.65-2.847 2.848-6.587 4.271-10.326 4.271zm0-19.199c-1.229 0-2.385.479-3.254 1.349-1.795 1.795-1.795 4.715 0 6.51 1.794 1.793 4.714 1.793 6.509 0 1.794-1.795 1.794-4.715 0-6.51-.87-.87-2.026-1.349-3.255-1.349z" fill="#8695f9"/><path d="m224.251 447.402c-3.74 0-7.479-1.423-10.326-4.27-5.694-5.694-5.694-14.958 0-20.651 5.694-5.694 14.958-5.695 20.652 0 5.693 5.693 5.693 14.957 0 20.65-2.847 2.847-6.587 4.271-10.326 4.271zm0-19.196c-1.179 0-2.357.449-3.255 1.347-1.794 1.794-1.794 4.714 0 6.509 1.795 1.793 4.715 1.793 6.509 0 1.794-1.795 1.794-4.715 0-6.51-.897-.897-2.075-1.346-3.254-1.346z" fill="#8695f9"/><path d="m260.001 474.554c-3.739 0-7.479-1.424-10.326-4.271-5.693-5.693-5.693-14.957 0-20.65s14.958-5.693 20.651 0c2.758 2.758 4.277 6.425 4.277 10.325s-1.519 7.567-4.278 10.326v-.001.001c-2.845 2.847-6.585 4.27-10.324 4.27zm0-19.196c-1.179 0-2.357.449-3.254 1.346-1.794 1.795-1.794 4.715 0 6.51 1.794 1.793 4.715 1.793 6.509 0v-.001c.869-.869 1.348-2.024 1.348-3.254s-.479-2.385-1.348-3.254c-.898-.898-2.076-1.347-3.255-1.347z" fill="#84eaa5"/><path d="m82.727 61.735h-3.25v-3.25c0-2.762-2.239-5-5-5s-5 2.238-5 5v3.25h-3.25c-2.761 0-5 2.238-5 5s2.239 5 5 5h3.25v3.25c0 2.762 2.239 5 5 5s5-2.238 5-5v-3.25h3.25c2.761 0 5-2.238 5-5s-2.239-5-5-5z" fill="#84eaa5"/><path d="m427.338 407.824h-3.25v-3.25c0-2.762-2.239-5-5-5s-5 2.238-5 5v3.25h-3.25c-2.761 0-5 2.238-5 5s2.239 5 5 5h3.25v3.25c0 2.762 2.239 5 5 5s5-2.238 5-5v-3.25h3.25c2.761 0 5-2.238 5-5s-2.239-5-5-5z" fill="#e17db3"/><path d="m154.557 316.06c-.769 0-1.547-.178-2.278-.552-2.457-1.261-3.427-4.274-2.167-6.731.529-1.03 13.278-25.541 41.789-51.104 26.284-23.566 71.473-52.383 137.492-55.83 2.761-.154 5.11 1.975 5.254 4.732.144 2.758-1.975 5.11-4.732 5.254-63.104 3.295-106.252 30.798-131.337 53.289-27.147 24.341-39.446 47.987-39.567 48.224-.887 1.726-2.639 2.718-4.454 2.718z" fill="#b8c1fb"/><path d="m345.67 223.263c-1.28 0-2.559-.488-3.536-1.465-1.953-1.952-1.953-5.118 0-7.07l8.234-8.234-8.234-8.234c-1.953-1.952-1.953-5.118 0-7.07 1.953-1.953 5.118-1.953 7.071 0l11.77 11.77c1.953 1.952 1.953 5.118 0 7.07l-11.77 11.77c-.976.975-2.255 1.463-3.535 1.463z" fill="#b8c1fb"/><path d="m322.85 276.944c-10.491 0-19.027-8.535-19.027-19.027s8.536-19.027 19.027-19.027c10.492 0 19.027 8.535 19.027 19.027s-8.535 19.027-19.027 19.027zm0-28.055c-4.978 0-9.027 4.05-9.027 9.027s4.049 9.027 9.027 9.027 9.027-4.05 9.027-9.027-4.049-9.027-9.027-9.027z" fill="#8efcb4"/><path d="m274.028 276.944c-10.492 0-19.027-8.535-19.027-19.027s8.536-19.027 19.027-19.027 19.027 8.535 19.027 19.027-8.535 19.027-19.027 19.027zm0-28.055c-4.978 0-9.027 4.05-9.027 9.027s4.05 9.027 9.027 9.027 9.027-4.05 9.027-9.027-4.049-9.027-9.027-9.027z" fill="#8efcb4"/><path d="m329.921 302.059 6.615-6.615c1.953-1.952 1.953-5.118 0-7.07-1.953-1.953-5.118-1.953-7.071 0l-6.615 6.615-6.615-6.615c-1.953-1.952-5.118-1.952-7.071 0s-1.953 5.118 0 7.07l6.615 6.615-6.615 6.615c-1.953 1.952-1.953 5.118 0 7.07.977.977 2.256 1.465 3.536 1.465s2.559-.488 3.536-1.465l6.615-6.615 6.615 6.615c.977.977 2.256 1.465 3.536 1.465 1.279 0 2.559-.488 3.536-1.465 1.953-1.952 1.953-5.118 0-7.07z" fill="#e8a4cb"/><path d="m221.919 199.344 6.615-6.615c1.953-1.952 1.953-5.118 0-7.07-1.952-1.952-5.117-1.952-7.071 0l-6.615 6.614-6.615-6.614c-1.953-1.953-5.118-1.953-7.071 0-1.953 1.952-1.953 5.118 0 7.07l6.615 6.615-6.615 6.615c-1.953 1.952-1.953 5.118 0 7.07.977.977 2.256 1.465 3.536 1.465 1.279 0 2.559-.488 3.536-1.465l6.615-6.614 6.615 6.614c.977.977 2.256 1.465 3.536 1.465s2.559-.488 3.536-1.465c1.953-1.952 1.953-5.118 0-7.07z" fill="#e8a4cb"/><path d="m170.313 238.089c0-9.16-7.453-16.613-16.613-16.613s-16.613 7.453-16.613 16.613c0 4.518 1.818 8.615 4.755 11.613-2.936 2.998-4.755 7.095-4.755 11.613 0 2.762 2.239 5 5 5s5-2.238 5-5c0-3.646 2.967-6.613 6.613-6.613s6.613 2.967 6.613 6.613c0 2.762 2.239 5 5 5s5-2.238 5-5c0-4.518-1.818-8.615-4.755-11.613 2.937-2.998 4.755-7.096 4.755-11.613zm-16.613-6.614c3.646 0 6.613 2.967 6.613 6.613s-2.967 6.613-6.613 6.613-6.613-2.967-6.613-6.613 2.967-6.613 6.613-6.613z" fill="#d2dbfc"/><path d="m401.5 179.382v200c0 11.04-8.95 20-20 20h-208.82l-29.14 29.14c-6.3 6.3-17.08 1.84-17.08-7.07v-22.07h-46.96c-11.05 0-20-8.96-20-20v-200c0-11.05 8.95-20 20-20h302c11.05 0 20 8.95 20 20z" fill="url(#SVGID_2_)"/></g></svg>