<svg id="Capa_1" enable-background="new 0 0 512 512" height="512" viewBox="0 0 512 512" width="512" xmlns="http://www.w3.org/2000/svg" xmlns:xlink="http://www.w3.org/1999/xlink"><linearGradient id="SVGID_1_" gradientTransform="matrix(.987 .163 -.163 .987 -493.773 -2430.079)" gradientUnits="userSpaceOnUse" x1="1388.223" x2="1063.251" y1="2597.627" y2="2465.993"><stop offset=".0112" stop-color="#e3fbec"/><stop offset=".7774" stop-color="#cedbf8"/><stop offset="1" stop-color="#c7d0fb"/></linearGradient><linearGradient id="lg1"><stop offset=".0028" stop-color="#e17db3" stop-opacity="0"/><stop offset="1" stop-color="#e17db3" stop-opacity=".6"/></linearGradient><linearGradient id="SVGID_2_" gradientTransform="matrix(1 0 0 -1 0 512)" gradientUnits="userSpaceOnUse" x1="299.275" x2="299.275" xlink:href="#lg1" y1="406.398" y2="179.398"/><linearGradient id="SVGID_3_" gradientTransform="matrix(1 0 0 -1 0 512)" gradientUnits="userSpaceOnUse" x1="217.077" x2="217.077" xlink:href="#lg1" y1="275.716" y2="85.121"/><g><path d="m337.407.425c-95.818 8.652-105.091 192.428-146.416 286.587-20.478 46.658-68.772 94.794-60.258 149.782 9.605 62.035 72.897 80.075 121.683 74.14 120.723-14.685 172.899-141.053 180.797-260.801 4.869-73.829 20.3-260.192-95.806-249.708z" fill="url(#SVGID_1_)"/><path d="m421.329 126.675v21.815c0 5.749-4.661 10.41-10.41 10.41h-45.59v-32.225c0-11.47-9.406-20.775-21.009-20.775h56.01c2.077 0 4.073.299 5.968.858 8.69 2.542 15.031 10.501 15.031 19.917z" fill="#6e80f8"/><path d="m406.703 106.872c-8.853 2.354-15.374 10.347-15.374 19.972v32.055h-25v-32.225c0-11.47-9.271-20.775-20.707-20.775h55.207c2.046 0 4.006.415 5.874.973z" fill="#5169f7"/><path d="m400.22 105.899c-11.538 0-20.891 9.32-20.891 20.796v185.374c0 11.504-9.326 20.83-20.83 20.83h-160.17v-206.16c0-11.51 9.33-20.84 20.84-20.84z" fill="#b9fdd1"/><path d="m262.329 105.899v45.67c0 5.153-4.177 9.33-9.33 9.33h-54.67v-34.16c0-11.51 9.33-20.84 20.84-20.84z" fill="#8efcb4"/><path d="m342.642 134.899h-80.389c-2.402 0-4.611-1.607-5.086-3.962-.647-3.213 1.796-6.038 4.895-6.038h80.77c3.099 0 5.543 2.824 4.895 6.038-.474 2.355-2.683 3.962-5.085 3.962z" fill="#fff"/><path d="m342.415 153.899h-23.007c-2.403 0-4.612-1.609-5.084-3.965-.644-3.214 1.796-6.035 4.896-6.035h23.006c2.403 0 4.612 1.609 5.085 3.965.645 3.214-1.797 6.035-4.896 6.035z" fill="#fff"/><path d="m334.762 310.899h-105.433v-119c0-3.314 2.686-6 6-6h90.035c14.892 0 26.965 12.073 26.965 26.965v80.468c0 9.702-7.865 17.567-17.567 17.567z" fill="#f3d7ea"/><g fill="#e8a4cb"><circle cx="298.521" cy="212.299" r="5.59"/><circle cx="315.432" cy="212.299" r="5.59"/><circle cx="332.342" cy="212.299" r="5.59"/></g><path d="m248.278 176.899h-13.812c-2.403 0-4.612-1.609-5.084-3.965-.644-3.214 1.796-6.035 4.896-6.035h13.812c2.403 0 4.612 1.609 5.084 3.965.645 3.214-1.795 6.035-4.896 6.035z" fill="#f3d7ea"/><path d="m265.662 209.899h-41.312c-2.403 0-4.612-1.609-5.084-3.965-.644-3.214 1.796-6.035 4.896-6.035h41.5c1.325 0 2.572-.517 3.51-1.454l13.185-13.183c2.811-2.812 6.551-4.362 10.528-4.362h38.325c1.336 0 2.592-.52 3.535-1.464l15.692-15.691c1.951-1.952 5.12-1.952 7.071 0 1.953 1.953 1.953 5.12 0 7.072l-15.691 15.691c-2.832 2.833-6.6 4.393-10.607 4.393h-38.31c-1.326 0-2.597.527-3.535 1.464l-13.174 13.173c-2.812 2.813-6.552 4.361-10.529 4.361z" fill="#e17db3"/><path d="m400.22 105.602c-11.538 0-20.891 9.32-20.891 20.796v185.374c0 11.504-9.326 20.83-20.83 20.83h-160.17v-206.16c0-11.51 9.33-20.84 20.84-20.84z" fill="url(#SVGID_2_)"/><path d="m359.324 333.899h-76.995v-77.153c0-11.509-9.404-20.847-20.995-20.847h55.99c2.288 0 4.485.36 6.551 1.041 8.396 2.722 14.454 10.569 14.454 19.806v56.306c0 11.51 9.404 20.847 20.995 20.847z" fill="#6e80f8"/><path d="m323.733 236.94c-8.367 2.722-14.404 10.569-14.404 19.806v77.153h-27v-77.153c0-11.509-9.372-20.847-20.923-20.847h55.798c2.28 0 4.47.361 6.529 1.041z" fill="#5169f7"/><path d="m317.979 235.802c-11.538 0-20.891 9.311-20.891 20.787v149.736c0 11.461-9.326 20.751-20.83 20.751h-160.17v-170.513c0-11.467 9.33-20.761 20.84-20.761z" fill="#e3fbec"/><path d="m159.297 321.899h88.065c3.296 0 5.967-2.672 5.967-5.967v-31.066c0-3.296-2.672-5.967-5.967-5.967h-88.066c-3.296 0-5.967 2.672-5.967 5.967v31.124c0 3.264 2.672 5.909 5.968 5.909z" fill="#f3d7ea"/><path d="m168.016 283.899h-16.519c-2.403 0-4.612-1.609-5.084-3.965-.644-3.214 1.796-6.035 4.896-6.035h16.519c2.403 0 4.612 1.609 5.084 3.965.645 3.214-1.795 6.035-4.896 6.035z" fill="#8efcb4"/><path d="m203.119 314.899h-51.622c-2.403 0-4.612-1.609-5.084-3.965-.644-3.214 1.796-6.035 4.896-6.035h51.621c2.403 0 4.612 1.609 5.085 3.965.645 3.214-1.797 6.035-4.896 6.035z" fill="#e17db3"/><path d="m227.829 331.899h-76.332c-2.403 0-4.612-1.609-5.084-3.965-.644-3.214 1.796-6.035 4.896-6.035h76.331c2.403 0 4.612 1.609 5.085 3.965.645 3.214-1.797 6.035-4.896 6.035z" fill="#e17db3"/><path d="m253.329 358.869v31.06c0 3.297-2.673 5.97-5.97 5.97h-88.06c-3.297 0-5.97-2.673-5.97-5.97v-31.06c0-3.297 2.673-5.97 5.97-5.97h88.06c3.297 0 5.97 2.673 5.97 5.97z" fill="#f3d7ea"/><path d="m269.505 278.652c0-9.16-7.453-16.613-16.613-16.613s-16.613 7.453-16.613 16.613c0 4.518 1.818 8.615 4.755 11.613-2.936 2.998-4.755 7.095-4.755 11.613 0 2.761 2.238 5 5 5s5-2.239 5-5c0-3.646 2.967-6.613 6.613-6.613s6.613 2.967 6.613 6.613c0 2.761 2.238 5 5 5s5-2.239 5-5c0-4.518-1.818-8.615-4.755-11.613 2.937-2.997 4.755-7.095 4.755-11.613zm-16.613-6.612c3.646 0 6.613 2.966 6.613 6.613s-2.967 6.613-6.613 6.613-6.613-2.967-6.613-6.613 2.966-6.613 6.613-6.613z" fill="#e17db3"/><path d="m318.022 236.284c-11.538 0-20.891 9.278-20.891 20.713v149.205c0 11.42-9.326 20.678-20.83 20.678h-160.17v-169.909c0-11.426 9.33-20.688 20.84-20.688z" fill="url(#SVGID_3_)"/><path d="m277.21 426.899h-181c-11.528 0-20.881-9.346-20.881-20.875v-16.698c0-5.76 4.681-10.427 10.445-10.427h160.109c5.764 0 10.445 4.668 10.445 10.427v16.698c.001 11.53 9.354 20.875 20.882 20.875z" fill="#6e80f8"/><path d="m262.329 68.229v69.34c0 5.153-4.177 9.33-9.33 9.33h-85.34c-5.153 0-9.33-4.177-9.33-9.33v-69.34c0-5.153 4.177-9.33 9.33-9.33h85.34c5.153 0 9.33 4.178 9.33 9.33z" fill="#e8a4cb"/><path d="m199.703 87.899h-16.519c-2.403 0-4.612-1.609-5.084-3.965-.644-3.214 1.796-6.035 4.896-6.035h16.519c2.403 0 4.612 1.609 5.084 3.965.645 3.214-1.795 6.035-4.896 6.035z" fill="#e17db3"/><path d="m262.329 68.229v69.34c0 5.153-4.177 9.33-9.33 9.33h-15.773c5.024 0 9.103-4.194 9.103-9.361v-69.278c0-5.167-4.078-9.361-9.103-9.361h15.773c5.153 0 9.33 4.178 9.33 9.33z" fill="#eec1db"/><path d="m262.329 86.838v50.732c0 5.153-4.177 9.33-9.33 9.33h-85.34c-5.153 0-9.33-4.177-9.33-9.33v-15.67h17.673c2.661 0 5.222-1.042 7.099-2.909l13.335-13.183c1.888-1.856 4.438-2.909 7.109-2.909h38.379c1.366 0 2.701-.278 3.936-.794 1.175-.496 2.249-1.201 3.163-2.114z" fill="#8695f9"/><path d="m262.329 86.599v50.97c0 5.153-4.177 9.33-9.33 9.33h-15.773c5.024 0 9.103-4.18 9.103-9.33v-35.676c1.085-.493 2.185-1.355 3.073-2.275z" fill="#a1adf9"/><path d="m289.787 452.899c29.69 0 53.455-25.316 50.797-55.495-2.321-26.35-24.995-46.283-51.504-46.283h-24.75v101.778z" fill="#5169f7"/><circle cx="264.505" cy="402.073" fill="#8efcb4" r="50.927"/><path d="m421.281 320.522c-4.695 0-9.475-2.256-12.639-7.132-1.778-2.74-2.459-6.089-1.917-9.31 2.232-13.267 18.108-17.128 26.195-7.071.394.49.747 1.016 1.051 1.567 2.783 5.051 2.518 10.796-.434 15.323 0 0 0 0-.001 0-2.796 4.29-7.48 6.623-12.255 6.623zm8.068-9.623h.01zm-8.038-9.869c-1.505 0-2.981.735-3.863 2.087-1.386 2.125-.783 4.983 1.343 6.37 2.123 1.384 4.983.785 6.37-1.342 1.385-2.126.783-4.983-1.342-6.369-.774-.505-1.646-.746-2.508-.746z" fill="#8695f9"/><path d="m202.896 482.214c-8.053 0-14.604-6.551-14.604-14.603s6.551-14.603 14.604-14.603c8.052 0 14.603 6.551 14.603 14.603s-6.551 14.603-14.603 14.603zm0-19.206c-2.538 0-4.604 2.064-4.604 4.603s2.065 4.603 4.604 4.603 4.603-2.065 4.603-4.603-2.065-4.603-4.603-4.603z" fill="#8695f9"/><path d="m111.391 198.899h-3.062v-3.062c0-2.404-1.611-4.614-3.968-5.085-3.214-.642-6.032 1.798-6.032 4.897v3.25h-3.062c-2.403 0-4.612 1.609-5.084 3.965-.644 3.214 1.796 6.035 4.896 6.035h3.25v3.062c0 2.404 1.61 4.614 3.968 5.085 3.214.642 6.032-1.798 6.032-4.897v-3.25h3.25c3.1 0 5.54-2.821 4.896-6.035-.472-2.356-2.681-3.965-5.084-3.965z" fill="#84eaa5"/><path d="m349.391 66.899h-3.062v-3.062c0-2.404-1.611-4.613-3.968-5.085-3.214-.642-6.032 1.799-6.032 4.897v3.25h-3.062c-2.403 0-4.612 1.609-5.084 3.965-.644 3.214 1.796 6.035 4.896 6.035h3.25v3.062c0 2.404 1.61 4.613 3.968 5.085 3.214.642 6.032-1.799 6.032-4.897v-3.25h3.25c3.1 0 5.54-2.821 4.896-6.035-.472-2.356-2.681-3.965-5.084-3.965z" fill="#e17db3"/><path d="m413.391 355.899h-3.062v-3.062c0-2.404-1.61-4.613-3.968-5.085-3.214-.642-6.032 1.798-6.032 4.897v3.25h-3.062c-2.403 0-4.612 1.609-5.084 3.965-.644 3.214 1.796 6.035 4.896 6.035h3.25v3.062c0 2.404 1.61 4.613 3.968 5.085 3.214.642 6.032-1.798 6.032-4.897v-3.25h3.25c3.1 0 5.54-2.821 4.896-6.035-.472-2.356-2.681-3.965-5.084-3.965z" fill="#e17db3"/><path d="m271.123 426.899h-17.941c-2.403 0-4.612-1.609-5.084-3.965-.644-3.214 1.796-6.035 4.896-6.035h17.867c2.633 0 5.007-1.917 5.243-4.54.266-2.963-2.07-5.46-4.98-5.46h-12.76c-8.09 0-15.082-6.203-15.46-14.284-.402-8.595 6.475-15.716 14.983-15.716h17.942c2.403 0 4.612 1.609 5.084 3.965.644 3.214-1.796 6.035-4.896 6.035h-17.867c-2.632 0-5.006 1.917-5.242 4.538-.267 2.963 2.07 5.462 4.979 5.462h12.762c8.09 0 15.082 6.203 15.46 14.284.4 8.595-6.478 15.716-14.986 15.716z" fill="#fff"/><path d="m259.329 429.715v-55.288c0-2.404 1.61-4.614 3.968-5.085 3.214-.642 6.032 1.798 6.032 4.897v55.664c0 3.098-2.818 5.538-6.032 4.896-2.357-.47-3.968-2.68-3.968-5.084z" fill="#fff"/></g></svg>