<svg id="Capa_1" enable-background="new 0 0 512 512" height="512" viewBox="0 0 512 512" width="512" xmlns="http://www.w3.org/2000/svg" xmlns:xlink="http://www.w3.org/1999/xlink"><linearGradient id="SVGID_1_" gradientTransform="matrix(1 0 0 -1 -561.6 -11906.99)" gradientUnits="userSpaceOnUse" x1="1104.23" x2="770.23" y1="-12422.641" y2="-12123.641"><stop offset="0" stop-color="#c7d0fb"/><stop offset=".593" stop-color="#e0d5f1"/><stop offset=".997" stop-color="#f3d7ea"/></linearGradient><linearGradient id="SVGID_2_" gradientUnits="userSpaceOnUse" x1="255.669" x2="255.669" y1="123.58" y2="452.58"><stop offset=".0028" stop-color="#e17db3" stop-opacity="0"/><stop offset="1" stop-color="#e17db3" stop-opacity=".6"/></linearGradient><g><path d="m471.476 120.811c-65.417-50.293-128.867-9.306-199.64-23.797-71.285-14.597-99.685-63.201-180.876-40.766-71.922 19.873-115.562 99.551-76.024 166.258 11.267 19.009 30.461 33.35 38.305 54.619 12.653 34.311-6.607 60.653-2.85 94.372 15.612 140.102 229.574 85.834 308.303 42.245 123.47-68.36 206.998-220.497 112.782-292.931z" fill="url(#SVGID_1_)"/><path d="m410.432 256.58h-23.018c-3.36-13.973-8.934-27.108-16.318-38.998l17.103-16.953c3.843-3.807 3.843-9.976 0-13.773l-30.645-30.357c-3.833-3.807-10.061-3.807-13.904 0l-17.113 16.943c-12.002-7.315-25.262-12.837-39.367-16.165v-23.927c0-5.396-4.374-9.77-9.77-9.77h-43.46c-5.396 0-9.77 4.374-9.77 9.77v22.985c-13.973 3.36-27.108 8.934-38.998 16.318l-16.953-17.103c-3.807-3.843-9.976-3.843-13.773 0l-30.357 30.645c-3.807 3.833-3.807 10.061 0 13.904l16.943 17.113c-7.315 12.002-12.837 25.262-16.165 39.367h-23.926c-5.396 0-9.77 4.374-9.77 9.77v43.46c0 5.396 4.374 9.77 9.77 9.77h22.985c3.36 13.973 8.934 27.108 16.318 38.998l-17.103 16.953c-3.843 3.807-3.843 9.976 0 13.773l30.645 30.357c3.833 3.807 10.061 3.807 13.904 0l17.113-16.943c12.002 7.315 25.262 12.837 39.367 16.165v23.926c0 5.396 4.374 9.77 9.77 9.77h43.46c5.396 0 9.77-4.374 9.77-9.77v-22.985c13.973-3.36 27.108-8.934 38.998-16.318l16.953 17.103c3.807 3.843 9.976 3.843 13.773 0l30.357-30.645c3.807-3.833 3.807-10.061 0-13.904l-16.943-17.113c7.315-12.002 12.837-25.262 16.165-39.367h23.926c5.396 0 9.77-4.374 9.77-9.77v-43.401c0-5.432-4.355-9.828-9.737-9.828zm-154.432 129.67c-54.35 0-98.42-44.07-98.42-98.42s44.07-98.42 98.42-98.42 98.42 44.07 98.42 98.42-44.07 98.42-98.42 98.42z" fill="#b9fdd1"/><path d="m270.922 122.58h-35.983c-5.396 0-9.77 4.374-9.77 9.77v24.04c-14.036 3.34-27.232 8.88-39.176 16.22l-17.03-17c-3.824-3.82-10.022-3.82-13.836 0l-7.939 7.93c5.146 14.1 15.038 25.91 27.742 33.53 4.445 2.67 7.238 7.39 7.238 12.57v13.11c17.26-19.8 42.309-32.64 70.382-33.74 12.615-11.61 20.684-28.1 21.074-46.38.151-6.98-.81-13.72-2.702-20.05z" fill="#8efcb4"/><path d="m410.432 256.58h-23.018c-3.36-13.973-8.934-27.108-16.318-38.998l17.103-16.953c3.843-3.807 3.843-9.976 0-13.773l-30.645-30.357c-3.833-3.807-10.061-3.807-13.904 0l-17.113 16.943c-12.002-7.315-25.262-12.837-39.367-16.165v-23.927c0-5.396-4.374-9.77-9.77-9.77h-43.46c-5.396 0-9.77 4.374-9.77 9.77v22.985c-13.973 3.36-27.108 8.934-38.998 16.318l-16.953-17.103c-3.807-3.843-9.976-3.843-13.773 0l-30.357 30.645c-3.807 3.833-3.807 10.061 0 13.904l16.943 17.113c-7.315 12.002-12.837 25.262-16.165 39.367h-23.926c-5.396 0-9.77 4.374-9.77 9.77v43.46c0 5.396 4.374 9.77 9.77 9.77h22.985c3.36 13.973 8.934 27.108 16.318 38.998l-17.103 16.953c-3.843 3.807-3.843 9.976 0 13.773l30.645 30.357c3.833 3.807 10.061 3.807 13.904 0l17.113-16.943c12.002 7.315 25.262 12.837 39.367 16.165v23.926c0 5.396 4.374 9.77 9.77 9.77h43.46c5.396 0 9.77-4.374 9.77-9.77v-22.985c13.973-3.36 27.108-8.934 38.998-16.318l16.953 17.103c3.807 3.843 9.976 3.843 13.773 0l30.357-30.645c3.807-3.833 3.807-10.061 0-13.904l-16.943-17.113c7.315-12.002 12.837-25.262 16.165-39.367h23.926c5.396 0 9.77-4.374 9.77-9.77v-43.401c0-5.432-4.355-9.828-9.737-9.828zm-154.432 129.67c-54.35 0-98.42-44.07-98.42-98.42s44.07-98.42 98.42-98.42 98.42 44.07 98.42 98.42-44.07 98.42-98.42 98.42z" fill="url(#SVGID_2_)"/><path d="m321.79 361.02c-5.03 4.52-10.52 8.53-16.39 11.95-7.09 4.12-14.75 7.39-22.83 9.64-6.29 1.77-12.84 2.92-19.57 3.39 2.43-39.3 15.38-69.3 30.98-69.3 12.08 0 22.56 17.97 27.81 44.32z" fill="#e8a4cb"/><path d="m317.25 343.789c-1.87.52-3.85.79-5.89.79h-34.75c-2.04 0-4.03-.28-5.91-.8 5.75-16.71 14.05-27.21 23.28-27.21 9.23.001 17.53 10.501 23.27 27.22z" fill="#e17db3"/><path d="m282.169 356.58v26.28c8.14-2.25 15.857-5.52 23-9.64v-16.64c0-2.762-2.238-5-5-5h-13c-2.762 0-5 2.238-5 5z" fill="#f3d7ea"/><path d="m182.169 192.033v160.383c13.363 15.494 31.452 26.724 52 31.407v-191.9c0-5.141 2.76-9.83 7.149-12.508 18.363-11.205 30.868-31.37 31.349-54.351.688-32.781-22.639-60.209-53.447-65.578-4.057-.707-7.164 3.584-5.245 7.261l19.772 37.898c2.549 4.886.691 10.933-4.149 13.507l-39.706 21.11c-4.841 2.574-10.833.699-13.383-4.187l-19.079-36.551c-1.968-3.771-7.385-3.478-8.985.466-3.089 7.61-4.791 15.936-4.791 24.663 0 23.719 12.565 44.458 31.336 55.84 4.41 2.674 7.179 7.383 7.179 12.54z" fill="#d2dbfc"/><path d="m305.17 323.58h-23.001v-120.895c0-3.89.954-7.72 2.777-11.156l5.603-10.557c1.328-2.501 4.911-2.501 6.238 0l5.604 10.557c1.824 3.436 2.777 7.266 2.777 11.156v120.895z" fill="#d2dbfc"/><path d="m311.498 332.58h-34.826c-4.873 0-9.3-3.23-10.405-7.975-1.606-6.895 3.584-13.025 10.206-13.025h34.826c4.872 0 9.3 3.23 10.405 7.975 1.606 6.895-3.584 13.025-10.206 13.025z" fill="#b9fdd1"/><path d="m204.169 337.335v-106.346c0-2.402 1.609-4.61 3.964-5.082 3.215-.645 6.036 1.795 6.036 4.896v106.345c0 2.402-1.609 4.61-3.964 5.083-3.215.645-6.036-1.796-6.036-4.896z" fill="#e17db3"/><path d="m298.464 105.835c-3.739 0-7.479-1.424-10.325-4.271-5.694-5.693-5.694-14.957 0-20.65 5.693-5.693 14.957-5.693 20.65 0 5.694 5.693 5.694 14.957 0 20.65-2.847 2.847-6.586 4.271-10.325 4.271zm0-19.196c-1.179 0-2.357.449-3.255 1.346-1.794 1.795-1.794 4.715 0 6.51 1.795 1.793 4.715 1.793 6.51 0 1.794-1.795 1.794-4.715 0-6.51-.898-.897-2.076-1.346-3.255-1.346z" fill="#e17db3"/><g fill="#8695f9"><path d="m79.537 367.718c-3.739 0-7.479-1.423-10.326-4.27-5.694-5.694-5.694-14.958 0-20.651 5.694-5.694 14.959-5.694 20.651 0 5.694 5.693 5.694 14.957 0 20.65-2.845 2.847-6.586 4.271-10.325 4.271zm0-19.196c-1.179 0-2.358.449-3.256 1.347-1.794 1.794-1.794 4.714 0 6.509 1.795 1.793 4.716 1.793 6.511 0 1.794-1.795 1.794-4.715 0-6.51-.897-.897-2.076-1.346-3.255-1.346z"/><path d="m431.937 370.85c-3.749 0-7.499-1.431-10.347-4.293-5.426-5.451-5.634-14.449-.452-20.132 5.64-6.185 15.27-6.351 21.124-.497 5.693 5.692 5.693 14.957.001 20.651 0 0 0 0-.001 0-2.847 2.847-6.586 4.271-10.325 4.271zm6.79-8.27h.01zm-6.79-11.275c-1.179 0-2.357.449-3.255 1.346-1.794 1.795-1.794 4.716.001 6.511 1.793 1.795 4.713 1.795 6.508 0 1.795-1.796 1.795-4.716.001-6.511-.898-.897-2.077-1.346-3.255-1.346z"/><path d="m336.231 116.58h-3.063v-3.063c0-2.404-1.611-4.613-3.968-5.084-3.214-.642-6.032 1.797-6.032 4.897v3.25h-3.063c-2.404 0-4.613 1.61-5.084 3.968-.642 3.214 1.797 6.032 4.897 6.032h3.25v3.063c0 2.404 1.611 4.613 3.968 5.084 3.214.642 6.032-1.797 6.032-4.897v-3.25h3.25c3.099 0 5.539-2.818 4.897-6.032-.47-2.358-2.68-3.969-5.084-3.968z"/></g><path d="m423.231 390.58h-3.063v-3.063c0-2.404-1.611-4.613-3.968-5.084-3.214-.642-6.032 1.797-6.032 4.897v3.25h-3.063c-2.404 0-4.613 1.611-5.084 3.968-.642 3.214 1.797 6.032 4.897 6.032h3.25v3.063c0 2.404 1.611 4.613 3.968 5.084 3.214.642 6.032-1.797 6.032-4.897v-3.25h3.25c3.099 0 5.539-2.818 4.897-6.032-.47-2.358-2.68-3.969-5.084-3.968z" fill="#84eaa5"/></g></svg>